<?xml version="1.0" encoding="UTF-8"?>
<svg width="3.8519in" height="1.9071in" inkscape:version="1.2.1 (9c6d41e410, 2022-07-14)" sodipodi:docname="GrizzardsLogo.svg" version="1.1" viewBox="0 0 97.838 48.439" xmlns="http://www.w3.org/2000/svg" xmlns:inkscape="http://www.inkscape.org/namespaces/inkscape" xmlns:sodipodi="http://sodipodi.sourceforge.net/DTD/sodipodi-0.dtd" xmlns:xlink="http://www.w3.org/1999/xlink">
 <sodipodi:namedview bordercolor="#111111" borderopacity="1" inkscape:current-layer="svg16103" inkscape:cx="184.54883" inkscape:cy="91.188833" inkscape:deskcolor="#d1d1d1" inkscape:document-units="mm" inkscape:pagecheckerboard="1" inkscape:pageopacity="0" inkscape:showpageshadow="0" inkscape:window-height="702" inkscape:window-maximized="1" inkscape:window-width="1366" inkscape:window-x="0" inkscape:window-y="0" inkscape:zoom="0.92116543" pagecolor="#ffffff" showgrid="false"/>
 <defs>
  <linearGradient id="linearGradient13848" x1="1792.9" x2="2075.6" y1="586.83" y2="730.72" gradientTransform="matrix(.26458 0 0 .26458 -398.83 -74.355)" gradientUnits="userSpaceOnUse" xlink:href="#linearGradient9566"/>
  <linearGradient id="linearGradient9566">
   <stop stop-color="#8866ce" offset="0"/>
   <stop stop-color="#954b88" offset=".99728"/>
  </linearGradient>
  <clipPath id="clipPath16435">
   <rect x="51.45" y="75.774" width="108.44" height="59.617" rx="1.5" ry="1.5" fill="#8d56a8" stroke-linecap="square" stroke-linejoin="round" stroke-width=".44397" style="paint-order:markers stroke fill"/>
  </clipPath>
  <clipPath id="clipPath16441">
   <rect x="51.45" y="75.774" width="108.44" height="59.617" rx="1.5" ry="1.5" fill="#8d56a8" stroke-linecap="square" stroke-linejoin="round" stroke-width=".44397" style="paint-order:markers stroke fill"/>
  </clipPath>
  <clipPath id="clipPath16447">
   <rect x="51.45" y="75.774" width="108.44" height="59.617" rx="1.5" ry="1.5" fill="#8d56a8" stroke-linecap="square" stroke-linejoin="round" stroke-width=".44397" style="paint-order:markers stroke fill"/>
  </clipPath>
  <clipPath id="clipPath16453">
   <rect x="51.45" y="75.774" width="108.44" height="59.617" rx="1.5" ry="1.5" fill="#8d56a8" stroke-linecap="square" stroke-linejoin="round" stroke-width=".44397" style="paint-order:markers stroke fill"/>
  </clipPath>
  <clipPath id="clipPath16459">
   <rect x="51.45" y="75.774" width="108.44" height="59.617" rx="1.5" ry="1.5" fill="#8d56a8" stroke-linecap="square" stroke-linejoin="round" stroke-width=".44397" style="paint-order:markers stroke fill"/>
  </clipPath>
  <clipPath id="clipPath16465">
   <rect x="51.45" y="75.774" width="108.44" height="59.617" rx="1.5" ry="1.5" fill="#8d56a8" stroke-linecap="square" stroke-linejoin="round" stroke-width=".44397" style="paint-order:markers stroke fill"/>
  </clipPath>
 </defs>
 <g fill="url(#linearGradient13848)" stroke-width=".084667">
  <path transform="translate(-61.254 -80.559)" d="m75.081 119.44c-9.4047-1.7818-15.921-16.61-12.539-28.406 3.4568-12.056 15.022-13.674 21.983-3.0292 0.96199 1.4711 2.5352 4.944 2.7299 5.9252l0.0498 0.25104-1.7552 0.32081c-0.96539 0.17645-1.7826 0.29075-1.8161 0.254-0.0335-0.0367-0.2412-0.52401-0.46165-1.0828-5.2757-13.374-17.541-10.617-17.516 3.937 0.0249 14.788 12.388 23.547 17.679 12.525 1.2661-2.6374 2.1472-9.2502 1.2496-9.3774-0.15923-0.0226-3.6496 0.64525-4.1887 0.80144-0.13973 0.0405-0.14909-0.0328-0.127-0.99587l0.0238-1.0396 1.4817-0.3179c0.81491-0.17484 1.7865-0.37387 2.159-0.44228 0.37253-0.0684 1.5999-0.29847 2.7275-0.51124 5.4804-1.0341 13.453-2.1128 21.614-2.9244 6.7858-0.6748 11.032-1.0136 20.743-1.6552 0.71977-0.0476 4.368-0.24804 6.9003-0.3792 7.8807-0.40816 12.283-1.4861 13.712-3.3573l0.28482-0.37304 0.25839 0.31347c0.14214 0.17242 0.28258 0.42353 0.31213 0.55803 0.10504 0.47831 0.93655 0.0965 2.4275-1.1146l0.73872-0.60009 0.13131 0.20041c0.0722 0.11022 0.17286 0.4437 0.22363 0.74106 0.0508 0.29736 0.12023 0.57109 0.1543 0.60827 0.0341 0.0372 0.99788-0.48661 2.1418-1.164 2.6662-1.5788 2.3858-1.5128 2.324-0.54761-0.30459 4.7581-4.2053 6.3444-16.74 6.8075-21.583 0.79745-38.69 2.2532-51.35 4.3694-2.4026 0.40163-2.1439 0.19534-2.0609 1.6431 0.61426 10.711-5.8602 19.509-13.495 18.062z" clip-path="url(#clipPath16465)"/>
  <path transform="translate(-61.254 -80.559)" d="m96.289 127.27c-0.75253-0.20325-0.89813 1.8e-4 -0.89262-0.49965 0.0342-3.0958 3.8475-6.477 8.4033-8.4112 6.0045-2.5492 15.909-3.5116 21.458-2.6428 0.4314 0.0675 1.9274 0.16131 3.3244 0.20837 2.7104 0.0913 5.2512 0.26019 7.25 0.42099 8.6692 0.69742 16.868-1.0309 18.598-4.5663 1.4761-3.0152 0.18391-5.6955-3.1663-6.566-2.1423-0.55662-2.9056-1.6011-2.9104-3.9826-6e-3 -3.0261 1.3548-4.187 4.9086-4.187 1.7842 0 3.0147 0.32713 3.634 0.96617l0.2599 0.26815-0.63211 0.91811c-0.34767 0.50496-0.65011 0.9361-0.6721 0.95808-0.022 0.022-0.14692-0.0337-0.27768-0.1238-1.1619-0.80057-3.7856-0.60844-4.4015 0.32232-0.95075 1.4367-0.0135 2.653 2.6956 3.4988 2.6359 0.82285 3.7542 2.4895 3.7542 5.5952 0 6.59-6.5723 9.7665-19.643 9.4935-2.0638-0.0431-4.7783-0.22823-5.1026-0.34797-0.059-0.0218-0.49712-0.0615-0.97366-0.0882s-1.3808-0.0845-2.0094-0.12838c-10.054-0.70181-19.641 1.6708-24.892 5.8448-4.2553 3.3825-6.2027 3.7274-8.7133 3.0494zm38.685-11.275c-436.25-103.92-218.12-51.96 0 0zm22.951-4.1002c4e-3 -0.0986 0.0241-0.11869 0.0511-0.0512 0.0243 0.0611 0.0214 0.13414-7e-3 0.16228-0.0281 0.0281-0.0482-0.0219-0.0445-0.11113z" clip-path="url(#clipPath16459)"/>
  <path transform="translate(-60.417 -80.919)" d="m92.089 117.02c3e-3 -0.0349-0.29139-3.5917-0.65183-7.6764-0.36041-4.0847-0.63823-7.4426-0.61732-7.462 0.25566-0.237 4.035-0.60848 4.7849-0.47031 2.3099 0.42559 3.602 3.2638 2.8003 6.1511-0.29255 1.0535-1.476 2.5702-1.8332 2.3494-0.54504-0.33685-0.29551 0.19447 1.6305 3.4719 0.86156 1.4661 1.3576 2.3907 1.3 2.4231-0.18105 0.1019-2.3763 0.33723-2.4028 0.25759-0.0146-0.0434-0.61664-1.0072-1.3381-2.1418-1.9403-3.0512-1.8882-3.0594-1.5828 0.2482 0.11735 1.2711 0.19738 2.327 0.17788 2.3465-0.0957 0.0957-2.272 0.58569-2.2674 0.50268zm2.8325-8.9312c1.4085-0.81792 1.6394-2.5344-0.58105-3.6178-0.79351-0.38716-1.0059-0.55957-0.78772 1.8887 0.23368 2.6223 0.44815 2.2638 1.3688 1.7291zm6.2204 7.5121c-0.0191-0.10187-1.3292-15.006-1.32-15.017 0.0324-0.0387 2.0901-0.3043 2.1201-0.27369 0.0188 0.0191 0.33398 3.4066 0.70048 7.5278l0.87959 7.6365-0.90599 0.064c-0.44609 0.0315-1.0447 0.0138-1.196 0.0366-0.15135 0.0229-0.27652 0.0344-0.27813 0.0257zm3.6417-2.042-0.10726-1.4451 1.671-4.8508c0.91901-2.6679 1.6496-4.9063 1.6236-4.9742-0.0618-0.16105-0.0884-0.15997-2.271 0.0921-1.0264 0.11854-1.877 0.20427-1.8903 0.1905-0.0428-0.0444-0.27831-2.4791-0.24331-2.5156 0.0472-0.0491 6.4743-0.70698 6.5145-0.66684 0.018 0.0179 0.076 0.64044 0.12911 1.3833l0.0965 1.3507-1.6874 4.953c-1.6828 4.9397-1.7976 5.3635-1.4124 5.2157 0.19164-0.0736 3.9356-0.58068 3.9776-0.53877 0.0516 0.0516 0.23558 2.3486 0.19161 2.3926-0.0193 0.0195-1.4865 0.22058-3.2601 0.44693l-3.2247 0.41155zm8.1243 0.28115c-3e-3 -0.0647-0.0545-0.61292-0.11419-1.2183-0.0597-0.60536-0.0804-1.1388-0.0461-1.1853 0.11562-0.15668 3.9759-9.7624 3.9759-9.8934 0-0.21756-0.0587-0.21752-2.443 2e-3 -1.2713 0.11688-2.3252 0.19876-2.3421 0.18194-0.0365-0.0365-0.18894-2.5534-0.15735-2.5972 0.0251-0.035 6.8257-0.61286 6.8541-0.58243 0.0103 0.0111 0.0758 0.6602 0.14557 1.4425l0.12682 1.4224-1.9458 4.8328c-1.7082 4.2424-1.9307 4.848-1.8219 4.9567 0.1129 0.1129 2.8241-0.11216 4.3479-0.36092l0.26659-0.0435 0.0479 0.48906c0.0265 0.26899 0.071 0.81404 0.0993 1.2112l0.0514 0.72216-3.1175 0.32348c-1.7147 0.17792-3.2985 0.34403-3.5197 0.36914-0.30723 0.0349-0.40349 0.0179-0.40783-0.072zm8.6401-0.9764c-3e-3 -0.24167 1.096-14.737 1.2206-14.651 0.01 6e-3 0.57917-0.028 1.2715-0.0423l1.2586-0.0261 1.9264 7.0697c1.0596 3.8883 1.9019 7.094 1.872 7.1237-0.0582 0.0577-2.2962 0.27717-2.3331 0.22879-0.0122-0.0158-0.14779-0.60028-0.30157-1.2988-0.35454-1.6107-0.26898-1.5164-1.3126-1.4458-1.1672 0.079-1.1372 0.0389-1.2484 1.667-0.10361 1.5165-4e-3 1.3929-1.19 1.4698-0.51473 0.0334-0.98669 0.0802-1.0488 0.104-0.0777 0.0298-0.11343-0.0321-0.11449-0.19854zm3.9792-5.1917c0.18124-0.0454-0.12846-1.6682-0.34293-2.3798-0.0481-0.15968-0.15957-0.69993-0.24768-1.2006-0.0881-0.50062-0.21613-0.99012-0.28453-1.0878l-0.12435-0.17754-0.1069 0.19876c-0.073 0.1359-0.11493 0.73434-0.13234 1.8921-0.014 0.93133-0.0449 1.8857-0.0686 2.1208-0.0738 0.73157 0.42532 0.85511 1.3073 0.63405zm-0.73753-0.23119c0.0824-0.0214 0.19667-0.02 0.254 3e-3 0.0573 0.0232-0.0101 0.0408-0.14978 0.039-0.1397-2e-3 -0.18661-0.0207-0.10422-0.0422zm-0.26342-0.19532c0-0.11642 0.0193-0.16404 0.0427-0.10583 0.0236 0.0582 0.0236 0.15345 0 0.21166-0.0235 0.0582-0.0427 0.0106-0.0427-0.10583zm-7e-3 -0.47272c4e-3 -0.0986 0.0241-0.1187 0.0511-0.0512 0.0243 0.0611 0.0214 0.13415-7e-3 0.16228-0.0282 0.0281-0.0482-0.0219-0.0445-0.11112zm0.01-0.41628c3e-3 -0.1397 0.0206-0.1866 0.0422-0.10422 0.0214 0.0824 0.0201 0.19667-3e-3 0.254-0.0233 0.0573-0.0407-0.0101-0.039-0.14978zm6.1585 5.8423c-0.0159-8e-4 -1.1653-14.309-1.1507-14.324 0.0618-0.0618 2.9731-0.2361 3.7154-0.22246 2.1927 0.0403 3.4959 0.80096 3.8855 2.268 0.0373 0.14042 0.12933 0.46486 0.2045 0.72098 0.52363 1.7838-0.19037 4.0613-1.5902 5.0724-0.63315 0.45731-0.71994 0.20096 1.1237 3.3194 0.88577 1.4983 1.6002 2.7324 1.5875 2.7425-0.0127 0.0101-0.53925 0.0433-1.1702 0.0737l-1.1472 0.0553-1.4775-2.2158c-2.14-3.2094-2.0597-3.2116-1.7268 0.0455 0.12686 1.2413 0.21264 2.275 0.1906 2.297-0.0273 0.0273-2.228 0.17791-2.4446 0.16732zm2.9279-8.1712c2.0767-1.0631 1.1756-3.2075-0.52417-3.4084-0.97758-0.11558-1.0247-0.3964-0.79613 1.7307 0.23863 2.2202 0.35338 2.1728 1.3203 1.6778zm6.3056 7.6382c0-0.033-0.26453-3.2408-0.58682-7.1284-0.32229-3.8876-0.57547-7.079-0.56263-7.0918 0.0707-0.0707 3.6427-0.0104 4.0665 0.0687 2.7079 0.50526 4.0771 2.3803 4.4992 6.1614 0.55105 4.9367-1.2054 7.7217-5.0024 7.932-1.7632 0.0976-2.413 0.1133-2.4138 0.0582zm3.1528-2.8285c1.1285-0.48389 1.6708-1.7 1.6725-3.7508 3e-3 -3.4353-1.0234-4.2003-2.8366-4.8412l-0.67551-0.23877-0.0259 0.31063c-0.0294 0.3532 0.72957 8.612 0.80225 8.7296 0.0631 0.10213 0.56885 2e-3 1.0632-0.20947zm0.44643-0.74509c0.0843-0.0931 0.1723-0.16934 0.19558-0.16934 0.0233 0-0.0266 0.0762-0.11091 0.16934-0.0843 0.0931-0.1723 0.16933-0.19558 0.16933-0.0233 0 0.0266-0.0762 0.11091-0.16933zm0.8177-3.048c0-0.11642 0.0193-0.16405 0.0427-0.10584 0.0236 0.0582 0.0236 0.15346 0 0.21167-0.0236 0.0582-0.0427 0.0106-0.0427-0.10583zm-2.4899-3.6121c0.0582-0.0235 0.15345-0.0235 0.21166 0 0.0582 0.0235 0.0106 0.0427-0.10583 0.0427-0.11642 0-0.16404-0.0192-0.10583-0.0427zm-42.976 6.4061c0-0.11642 0.0193-0.16405 0.0427-0.10584 0.0236 0.0582 0.0236 0.15346 0 0.21167-0.0236 0.0582-0.0427 0.0106-0.0427-0.10583zm48.853-0.0847c0-0.11642 0.0193-0.16404 0.0427-0.10583 0.0236 0.0582 0.0236 0.15345 0 0.21166-0.0236 0.0582-0.0427 0.0106-0.0427-0.10583zm-48.859-2.9281c4e-3 -0.0986 0.0241-0.11869 0.0511-0.0512 0.0243 0.0611 0.0214 0.13414-7e-3 0.16228-0.0281 0.0281-0.0481-0.0219-0.0445-0.11113zm48.859-0.45861c0-0.11641 0.0193-0.16404 0.0427-0.10583 0.0236 0.0582 0.0236 0.15346 0 0.21167-0.0236 0.0582-0.0427 0.0106-0.0427-0.10584zm-0.0847-0.84666c0-0.11642 0.0193-0.16405 0.0427-0.10584 0.0236 0.0582 0.0236 0.15346 0 0.21167-0.0236 0.0582-0.0427 0.0106-0.0427-0.10583zm-0.0913-0.72673c4e-3 -0.0986 0.0241-0.11869 0.0511-0.0512 0.0243 0.0611 0.0214 0.13414-7e-3 0.16228-0.0281 0.0281-0.0481-0.0219-0.0445-0.11113zm-9.8213-1.8628c4e-3 -0.0986 0.0241-0.11869 0.0511-0.0511 0.0243 0.0611 0.0214 0.13414-7e-3 0.16227-0.0281 0.0281-0.0481-0.0219-0.0445-0.11112zm7.9412-2.3848c-0.10531-0.13429-0.10232-0.13728 0.032-0.032 0.14102 0.11061 0.1859 0.18014 0.1162 0.18014-0.0175 0-0.0843-0.0667-0.14816-0.14817zm-9.0142-0.127-0.16129-0.1905 0.1905 0.16129c0.10477 0.0887 0.1905 0.17443 0.1905 0.1905 0 0.0677-0.0681 0.0177-0.21971-0.16129z" clip-path="url(#clipPath16453)"/>
 </g>
 <g stroke-width=".084667">
  <path transform="translate(-61.254 -80.559)" d="m75.015 120.76c-8.7007-1.5765-15.144-14.078-13.505-26.201 2.049-15.155 15.323-18.958 23.347-6.6887 1.5953 2.4395 3.2939 6.604 2.6936 6.604-0.0428 0-0.0191 0.17238 0.0526 0.38306 0.27368 0.80322 0.26239 0.80992-2.1419 1.2703-2.0683 0.39602-1.8903 0.42614-2.1633-0.36594-5.514-15.998-20.717-9.1815-16.584 7.4356 3.7757 15.18 17.115 15.419 17.922 0.32039 0.0705-1.3191 0.29263-1.2477-2.2794-0.73304-2.72 0.54424-2.4298 0.72626-2.4298-1.524 0-2.2276-0.27546-1.9262 2.2437-2.4549 12.79-2.6841 30.779-4.6487 53.213-5.8117 8.9453-0.46373 12.952-1.4864 14.393-3.6735l0.127-0.19275 0.3411 0.24721c0.19315 0.13998 0.41 0.40005 0.49999 0.59958l0.15891 0.35237 0.47196-0.26637c0.61812-0.34884 1.3017-0.85521 1.8439-1.3658 0.39798-0.37485 0.45317-0.40178 0.61637-0.30058 0.23082 0.14314 0.59748 0.87659 0.59748 1.1952 0 0.31723-0.12816 0.3766 2.2521-1.0432 2.5488-1.5203 2.4574-1.5496 2.378 0.76349-0.19019 5.5419-3.9484 7.1168-18.177 7.6171-4.3984 0.15465-8.9284 0.35577-9.0593 0.4022-0.0699 0.0248-0.81108 0.0602-1.6472 0.0788s-1.541 0.0653-1.5663 0.10387c-2.5051 0.15218-1.2802 0.0392-2.9248 0.13573-1.071 0.0684-2.3093 0.14381-2.7517 0.16758-0.44238 0.0238-1.052 0.0638-1.3547 0.089-1.4735 0.12272-4.2187 0.30796-5.1647 0.34849-0.58209 0.025-1.4774 0.10169-1.9897 0.17055-0.51223 0.0689-1.179 0.14103-1.4817 0.16037-0.30268 0.0193-0.70273 0.0525-0.889 0.0737-0.18626 0.0212-0.64672 0.059-1.0232 0.084-4.2607 0.2832-14.131 1.4852-19.918 2.4257-1.1334 0.18418-2.0668 0.33492-2.0743 0.33499-7e-3 6e-5 -0.0177 0.86684-0.0225 1.9262-0.0508 11.121-6.2102 18.744-14.005 17.332zm4.192-1.7687c5.9412-1.7843 9.8551-9.1435 9.3691-17.617-0.083-1.4477-0.34176-1.2414 2.0609-1.6431 12.66-2.1162 29.768-3.572 51.35-4.3694 12.534-0.46313 16.435-2.0494 16.74-6.8075 0.0618-0.96518 0.3421-1.0312-2.324 0.54761-1.1439 0.67738-2.1077 1.2012-2.1418 1.164-0.0341-0.0372-0.1035-0.31091-0.1543-0.60827s-0.1514-0.63084-0.22363-0.74106l-0.13131-0.20041-0.73872 0.60009c-1.4909 1.2111-2.3224 1.5929-2.4275 1.1146-0.0295-0.1345-0.16999-0.38561-0.31213-0.55803l-0.25839-0.31347-0.28482 0.37304c-1.4288 1.8712-5.8313 2.9491-13.712 3.3573-2.5324 0.13116-6.1806 0.33164-6.9003 0.3792-9.7111 0.6416-13.958 0.98045-20.743 1.6552-8.1616 0.81161-16.134 1.8902-21.614 2.9244-1.1276 0.21277-2.355 0.44282-2.7275 0.51124-0.37254 0.0684-1.3441 0.26744-2.159 0.44228l-1.4817 0.3179-0.0238 1.0396c-0.022 0.96306-0.0127 1.0364 0.127 0.99587 0.53914-0.15619 4.0295-0.82401 4.1887-0.80144 0.89762 0.12724 0.0164 6.74-1.2496 9.3774-5.2911 11.022-17.654 2.2636-17.679-12.525-0.0243-14.554 12.241-17.311 17.516-3.937 0.22045 0.5588 0.42818 1.0461 0.46165 1.0828 0.0335 0.0367 0.85071-0.0776 1.8161-0.254l1.7552-0.32081-0.0498-0.25104c-0.19463-0.98118-1.7749-4.3315-2.7369-5.8026-8.5578-13.087-22.726-7.1002-22.743 9.6097-0.0132 12.861 8.9587 23.802 17.432 21.257z" clip-path="url(#clipPath16447)" fill="#030203"/>
  <path transform="translate(-61.254 -80.559)" d="m96.626 128.88c-1.3709-0.28775-1.598-0.46139-1.4438-1.1042 0.0763-0.31804 0.0786-0.45602 9e-3 -0.52592-0.15206-0.15206-0.11343-0.38429 0.23161-1.392 1.5448-4.5116 5.8964-7.4772 13.94-9.4999 3.7049-0.93169 10.159-1.3392 16.171-1.021 2.5763 0.13632 7.7188 0.49786 9.6943 0.68154 4.9058 0.45615 10.018 0.17849 13.534-0.73511 6.3922-1.6608 8.0026-7.1407 2.5101-8.5411-2.6191-0.6678-3.3156-1.7968-3.2383-5.2496 0.0706-3.1558 0.91016-4.2658 3.5246-4.6599 2.4734-0.37285 4.5751 8e-3 5.6624 1.026l0.4454 0.417-0.21257 0.31279c-0.26373 0.38814-0.26371 0.43681 0 0.68156l0.21278 0.1973-0.75763 1.1036c-0.96026 1.3987-0.91962 1.366-1.3122 1.0541-1.1789-0.9369-4.2824-0.65189-4.2824 0.39327 0 0.39285 1.2348 1.1154 2.5605 1.4983 2.3236 0.67114 3.7397 2.2896 4.0553 4.6347 1.1625 8.6364-5.3833 12.668-19.993 12.314-2.219-0.0538-2.5507-0.0769-5.8274-0.40559-4.2516-0.42653-10.049-0.25892-13.815 0.3994-0.67522 0.11803-1.4563 0.25387-1.7357 0.30187-4.4271 0.76048-8.4716 2.5154-11.388 4.9412-3.0731 2.5564-6.1156 3.6878-8.5455 3.1778zm3.2962-1.6871c1.493-0.43065 3.264-1.4653 5.08-2.9678 5.1683-4.2761 14.838-6.5466 24.892-5.8448 0.62865 0.0439 1.5329 0.10165 2.0094 0.12838 0.47654 0.0267 0.91469 0.0664 0.97366 0.0882 0.32423 0.11974 3.0388 0.30486 5.1026 0.34797 13.07 0.27302 19.643-2.9034 19.643-9.4935 0-3.1057-1.1182-4.7724-3.7542-5.5952-2.7092-0.84576-3.6464-2.0621-2.6956-3.4988 0.61595-0.93076 3.2396-1.1229 4.4015-0.32232 0.13076 0.0901 0.2557 0.14579 0.27768 0.1238 0.022-0.022 0.32443-0.45312 0.6721-0.95808l0.63211-0.91811-0.2599-0.26815c-0.61936-0.63904-1.8498-0.96617-3.634-0.96617-3.5538 0-4.9147 1.1608-4.9086 4.187 5e-3 2.3816 0.76812 3.426 2.9104 3.9826 5.7198 1.4861 4.8223 8.0343-1.3793 10.063-3.3168 1.0848-9.7662 1.6019-14.064 1.1277-1.9932-0.21994-4.5286-0.38771-7.239-0.47901-1.397-0.0471-2.8749-0.1045-3.3104-0.13621-3.3746-0.24567-7.2201-0.21655-11.409 0.18216-3.446 0.32796-7.2599 1.3393-9.7892 2.3849-4.5739 1.8908-8.752 5.9357-8.5314 8.2593 0.0763 0.8029 2.4902 1.1189 4.3809 0.57356zm-1.6764-1.8835c-0.0559-0.0559-0.0992-0.17971-0.0962-0.27517 5e-3 -0.16831 8e-3 -0.16801 0.0793 0.01 0.0406 0.1008 0.14298 0.22346 0.22746 0.27259 0.12303 0.0716 0.12748 0.0898 0.0222 0.0919-0.0722 1e-3 -0.17695-0.0432-0.23283-0.099zm1.042-0.15143c-0.0297-0.048 4e-3 -0.0622 0.0797-0.0333 0.14669 0.0563 0.17352 0.11697 0.0517 0.11697-0.0438 0-0.10295-0.0377-0.13139-0.0837zm1.1447-0.0405c-0.0567-0.0683-0.0834-0.17306-0.0594-0.23283 0.0281-0.07 0.046-0.0574 0.0503 0.0353 4e-3 0.0792 0.0734 0.18279 0.15486 0.23026 0.0815 0.0475 0.1052 0.0875 0.0527 0.0889-0.0525 1e-3 -0.14184-0.0533-0.19852-0.12158zm0.98444-0.11535c-0.0771-0.0852-0.14013-0.20459-0.14013-0.26541 0-0.0608 0.0816-7e-3 0.18143 0.12005 0.13099 0.16653 0.23691 0.22004 0.381 0.1925 0.10977-0.021 0.19957-5e-3 0.19957 0.0348 0 0.13679-0.48133 0.0734-0.62187-0.0819zm-2.9016-0.72922c-0.0257-0.0671-0.029-0.19095-7e-3 -0.27516 0.0267-0.10323 0.0429-0.0796 0.0495 0.0727 5e-3 0.12418 0.0574 0.245 0.11565 0.26848 0.0829 0.0334 0.0823 0.0442-3e-3 0.0494-0.0597 4e-3 -0.12956-0.0482-0.15533-0.11537zm1.047 0.0306c-0.0892-0.052-0.14359-0.17721-0.13663-0.31493 0.0101-0.19846 0.0164-0.20359 0.0481-0.0389 0.0201 0.10437 0.11867 0.24724 0.21897 0.3175 0.20349 0.14253 0.10091 0.17106-0.13047 0.0363zm1.0541-0.0948c-0.0559-0.0559-0.10104-0.1797-0.10035-0.27517 0-0.15689 0.0114-0.15359 0.10652 0.0344 0.0579 0.1144 0.20021 0.23443 0.31626 0.26672l0.21097 0.0587-0.2159 8e-3c-0.11874 5e-3 -0.26162-0.0373-0.3175-0.0932zm1.3166 0.0102c-0.15759-0.0918-0.20074-0.37407-0.0696-0.45514 0.0432-0.0267 0.0909 0.0377 0.10584 0.14316 0.0314 0.22097 0.34663 0.30596 0.53988 0.14556 0.0823-0.0683 0.12234-0.0714 0.12234-9e-3 0 0.21397-0.44201 0.32528-0.6985 0.1759zm1.0372-0.67055c-0.1623-0.1623-0.22448-0.33867-0.11941-0.33867 0.0275 0 0.12023 0.0857 0.20616 0.1905 0.13462 0.16416 0.18024 0.17587 0.32991 0.0847 0.26488-0.16138 0.32785-0.12089 0.10314 0.0663-0.24982 0.20811-0.30919 0.20779-0.5198-3e-3zm-4.318-0.254c-0.18754-0.18754-0.19312-0.22124-0.077-0.46567 0.0729-0.15338 0.0768-0.15052 0.0419 0.0303-0.0268 0.13866 0.0282 0.26153 0.17994 0.40216 0.12018 0.11138 0.17484 0.2025 0.12147 0.2025-0.0534 0-0.17322-0.0762-0.26635-0.16933zm0.70998-0.21457c-0.10914-0.16655-0.12033-0.25656-0.05-0.40217 0.0876-0.18141 0.0908-0.17973 0.0963 0.0508 3e-3 0.13112 0.0452 0.3121 0.0934 0.40217 0.12735 0.23795 0.0251 0.20079-0.13967-0.0508zm2.0548 0.0597c-0.16688-0.18438-0.18024-0.3838-0.0339-0.50527 0.0814-0.0676 0.10616-0.0255 0.10584 0.18014 0 0.25552 0.0148 0.26784 0.31797 0.25857 0.26001-8e-3 0.30081 0.0114 0.22247 0.10583-0.13555 0.16334-0.4471 0.14336-0.61238-0.0393zm-0.96986-0.0314c-0.20886-0.20885-7e-3 -0.74507 0.28086-0.74507 0.0401 0-0.0106 0.0777-0.1125 0.17264-0.27467 0.25589-0.23924 0.48428 0.0899 0.57931 0.24884 0.0719 0.25451 0.0802 0.0593 0.0871-0.11874 4e-3 -0.26162-0.0381-0.3175-0.094zm3.6775-0.41254c-0.2575-0.19612-0.30927-0.60794-0.1251-0.72177 0.0681-0.0421 0.0824-7.9e-4 0.0467 0.13569-0.15025 0.57466 0.73462 0.90232 0.91364 0.33831 0.0296-0.0932 0.0903-0.16942 0.13491-0.16942 0.0446 0 0.0243 0.10968-0.0449 0.24374-0.20325 0.393-0.55645 0.45431-0.92522 0.17345zm-1.4743-0.21032c-0.18889-0.13231-0.2748-0.63021-0.10874-0.63021 0.0437 0 0.0723 0.0994 0.0635 0.22092-0.0238 0.33021 0.21767 0.45179 0.53601 0.26985 0.13883-0.0793 0.25239-0.11006 0.25239-0.0683 0 0.0915-0.3402 0.33952-0.46567 0.33952-0.0491 0-0.17399-0.0593-0.27749-0.13179zm-1.572-0.44637c-0.15425-0.17044-0.17912-0.41446-0.0613-0.6007 0.0529-0.0836 0.072-0.0316 0.0622 0.16933-0.0156 0.32027 0.25104 0.44912 0.50065 0.24197 0.20748-0.17222 0.22995-0.0243 0.0251 0.16638-0.23426 0.21826-0.34573 0.22313-0.52684 0.023zm-1.2425-0.22818c-0.083-0.10004-0.0849-0.17136-8e-3 -0.3175l0.0989-0.18849-0.0368 0.19114c-0.0246 0.12771 0.023 0.23306 0.14361 0.3175 0.13867 0.0971 0.14907 0.12636 0.045 0.12636-0.0745 0-0.18364-0.0581-0.24254-0.12901zm3.8117-0.234c-0.23834-0.11993-0.32927-0.54542-0.17087-0.79933 0.0759-0.12172 0.0838-0.0991 0.0419 0.12021-0.11197 0.58578 0.30464 0.80662 0.73816 0.39129 0.292-0.27974 0.31668-0.1367 0.0299 0.17281-0.23249 0.25086-0.33311 0.26897-0.63905 0.11502zm-1.6379-0.29982c-0.16211-0.17913-0.1846-0.48503-0.0421-0.57308 0.0683-0.0422 0.0822-1.7e-4 0.0459 0.13877-0.0981 0.37531 0.24773 0.55139 0.54848 0.27922 0.21937-0.19854 0.27247-0.0966 0.0655 0.12558-0.20963 0.22501-0.43119 0.23559-0.6177 0.0295z" clip-path="url(#clipPath16441)" fill="#0a0609"/>
  <path transform="translate(-61.254 -80.559)" d="m92.577 117.93c-0.10996-0.27225-1.3684-14.748-1.3729-15.792-5e-3 -1.019 0.0313-1.0838 0.62976-1.1439 0.24347-0.0245 0.7475-0.0845 1.12-0.13326 0.65645-0.086 0.85039-0.10685 2.1204-0.22785 1.7762-0.16922 3.3812 0.6345 4.0809 2.0435 1.0759 2.1665 0.75337 6.1997-0.60952 7.6221l-0.37521 0.39158 1.3075 2.2384c0.71914 1.2311 1.3075 2.2857 1.3075 2.3436 0 0.0579 0.0441 0.14933 0.098 0.20324 0.11589 0.11588-0.0435 0.35918-0.23537 0.35918-0.14936 0-0.14671 0.0431 0.0225 0.36794 0.30218 0.58023 0.30253 0.58146 0.18582 0.69632-0.0658 0.0648-0.70747 0.18883-1.533 0.29631l-1.4197 0.18483-0.19915-0.21489c-0.10954-0.1182-0.64924-0.92247-1.1993-1.7873-0.55007-0.8648-1.0162-1.5563-1.0358-1.5367-0.0196 0.0196 5e-3 0.48572 0.0543 1.0358 0.25765 2.8648 0.27847 2.8172-1.3422 3.0618-1.503 0.22678-1.5095 0.22675-1.6046-9e-3zm1.496-1.5905c0.59071-0.0948 1.09-0.18826 1.1095-0.20776 0.0196-0.0195-0.0605-1.0754-0.17788-2.3465-0.30533-3.3076-0.35748-3.2994 1.5828-0.2482 0.72149 1.1346 1.3236 2.0984 1.3381 2.1418 0.0265 0.0796 2.2218-0.15568 2.4028-0.25758 0.0576-0.0324-0.43842-0.95703-1.3-2.4231-1.926-3.2775-2.1756-3.8088-1.6305-3.4719 0.35724 0.22078 1.5406-1.2959 1.8332-2.3494 0.80174-2.8873-0.49035-5.7255-2.8003-6.1511-0.74991-0.13817-4.5293 0.23331-4.7849 0.47032-0.0209 0.0194 0.25691 3.3773 0.61733 7.462 0.36044 4.0847 0.65376 7.4554 0.65183 7.4903-5e-3 0.0825-0.0773 0.0894 1.158-0.1088zm0.56457-8.1393c-0.1106-0.17691-0.45821-4.3261-0.37121-4.4309 0.12501-0.15066 1.3372-6e-3 1.8089 0.21543 1.2462 0.58581 1.3864 2.6027 0.24657 3.5471-0.58928 0.4882-1.5569 0.87214-1.6843 0.66833zm0.9833-0.58176c1.4948-0.76167 1.2845-2.0921-0.37172-2.3518-0.56224-0.0882-0.52747-0.22577-0.37589 1.4885 0.11105 1.256 0.07 1.2086 0.74761 0.86334zm6.096 9.1051c-0.058-0.0698-0.077-0.127-0.0423-0.127s0.0164-0.0561-0.0404-0.12463c-0.26107-0.31459-1.5361-16.283-1.3229-16.568 0.16177-0.2168 2.5953-0.51173 2.7685-0.33553 0.29514 0.30016 1.6235 16.664 1.3698 16.875-0.0763 0.0633-2.0583 0.37476-2.5742 0.40454-0.0292 2e-3 -0.10056-0.0541-0.15853-0.12394zm1.6111-1.6767 0.8068-0.10129-0.66633-7.493c-0.3665-4.1212-0.6817-7.5087-0.70048-7.5278-0.03-0.0306-2.0877 0.23503-2.1201 0.27369-9e-3 0.011 1.3009 14.915 1.32 15.017 3e-3 9e-3 0.12679-3e-3 0.27813-0.0257 0.15134-0.0229 0.63823-0.0871 1.082-0.14284zm2.0617 1.1112c-0.1021-0.16331-0.27665-2.4044-0.27905-3.5831l-3e-3 -1.016 1.3863-4.0217c0.76247-2.2119 1.3743-4.0342 1.3597-4.0494-0.0145-0.0153-0.79634 0.0592-1.7371 0.1655-2.0539 0.23208-1.8761 0.33864-2.0274-1.2147-0.28731-2.9508-0.23865-3.1941 0.64823-3.2408 0.31732-0.0167 0.86268-0.0723 1.2119-0.12361 1.586-0.23295 5.259-0.5595 5.3271-0.47361 0.0905 0.11405 0.26226 2.4553 0.26147 3.5636v0.84996l-1.399 4.1364c-0.76944 2.275-1.3864 4.149-1.371 4.1644s0.78783-0.0795 1.7165-0.21092c2.1643-0.30626 2.1541-0.32118 2.1541 3.1677 0 1.207 0.38045 1.0405-3.4713 1.519-1.6997 0.21115-3.2293 0.40535-3.3992 0.43156-0.20783 0.0321-0.33165 0.0111-0.37872-0.0642zm6.812-2.398c0.044-0.044-0.14-2.3409-0.19162-2.3926-0.0419-0.0419-3.7859 0.46522-3.9776 0.53877-0.38515 0.14779-0.27037-0.276 1.4125-5.2157l1.6874-4.953-0.0965-1.3507c-0.0531-0.7429-0.11115-1.3654-0.12912-1.3833-0.0401-0.0401-6.4673 0.61776-6.5145 0.66684-0.035 0.0364 0.20047 2.4712 0.24331 2.5156 0.0132 0.0138 0.86392-0.072 1.8903-0.1905 2.1826-0.25208 2.2092-0.25316 2.271-0.0921 0.0259 0.0679-0.70459 2.3062-1.6236 4.9742l-1.671 4.8508 0.10726 1.4451 0.10727 1.4451 3.2247-0.41155c1.7736-0.22635 3.2406-0.42747 3.2601-0.44693zm1.2046 1.3594c-0.16481-0.20302-0.39367-3.9542-0.25339-4.1532 0.0821-0.11642 3.3836-8.2804 3.3585-8.3049-0.0111-0.0108-0.90345 0.0599-1.983 0.15719-2.4096 0.21705-2.1924 0.33884-2.2732-1.2747-0.15771-3.149-0.14205-3.2539 0.48181-3.2278 0.34139 0.0143 1.0721-0.0543 2.8653-0.26882 1.0428-0.12476 1.2734-0.14279 2.54-0.19845 0.62865-0.0276 1.247-0.0677 1.3742-0.0891 0.37473-0.0631 0.56205 1.0734 0.60687 3.6815l0.0154 0.889-1.6277 4.0428c-0.89522 2.2236-1.6128 4.0428-1.5947 4.0428 0.20111 0 3.8013-0.4351 3.8502-0.46532 0.21003-0.12979 0.39005 1.4254 0.41823 3.613 0.0119 0.92408 0.40553 0.79308-3.667 1.2204-1.9149 0.20091-3.607 0.37867-3.7602 0.39502-0.15322 0.0164-0.31118-0.0104-0.35103-0.0595zm4.2552-1.9621 3.1175-0.32349-0.0514-0.72215c-0.0283-0.39719-0.0729-0.94223-0.0993-1.2112l-0.0479-0.48906-0.2666 0.0435c-1.5238 0.24876-4.235 0.47382-4.3479 0.36092-0.10877-0.10878 0.11377-0.71429 1.8219-4.9567l1.9458-4.8328-0.12681-1.4224c-0.0697-0.78231-0.13526-1.4314-0.14558-1.4425-0.0284-0.0304-6.8289 0.54746-6.8541 0.58244-0.0316 0.0439 0.12089 2.5608 0.15735 2.5972 0.0169 0.0168 1.0707-0.0651 2.3421-0.18194 2.3843-0.21921 2.443-0.21925 2.443-2e-3 0 0.13101-3.8603 9.7367-3.9759 9.8934-0.0344 0.0466-0.0138 0.57997 0.0461 1.1853 0.0597 0.60536 0.11107 1.1536 0.11419 1.2183 4e-3 0.0899 0.1006 0.10685 0.40783 0.072 0.22119-0.0251 1.8051-0.19123 3.5197-0.36914zm4.4506 1.0147c-0.35865-0.43215 0.85804-16.491 1.2652-16.699 0.25063-0.12837 2.9465-0.19351 3.0411-0.0735 0.10578 0.13416 3.9158 14.146 3.9158 14.401 0 0.10491-0.0428 0.23357-0.0952 0.28592-0.0705 0.0705-0.0705 0.16609 0 0.36824 0.30308 0.86943 0.0249 1.135-1.3151 1.2557-1.7839 0.1607-1.6325 0.27465-2.0468-1.5407-0.29625-1.2982-0.20587-1.1943-0.97589-1.1221-0.74356 0.0697-0.68932-0.0465-0.78134 1.6731-0.0719 1.3432-0.0529 1.3213-1.2334 1.4246-0.48178 0.0421-1.0518 0.0973-1.2666 0.12262-0.30129 0.0355-0.41746 0.0137-0.50787-0.0952zm1.4253-1.5994c1.1864-0.0769 1.0864 0.0466 1.19-1.4698 0.11126-1.6281 0.0813-1.588 1.2484-1.6671 1.0436-0.0707 0.95805-0.16489 1.3126 1.4458 0.15377 0.6985 0.28945 1.283 0.30157 1.2988 0.037 0.0484 2.2749-0.17106 2.3331-0.22878 0.03-0.0297-0.8124-3.2354-1.872-7.1237l-1.9264-7.0697-1.2586 0.0261c-0.69228 0.0144-1.2644 0.0334-1.2714 0.0423-0.14391 0.18186-1.2403 14.901-1.1061 14.85 0.0621-0.0238 0.53409-0.0707 1.0488-0.104zm1.596-5.3065c-0.0931-0.13292-0.11816-0.30894-0.0874-0.61383 0.0238-0.23511 0.0546-1.1895 0.0686-2.1208 0.0175-1.1578 0.0593-1.7562 0.13234-1.8921l0.10689-0.19877 0.12436 0.17755c0.0684 0.0976 0.19642 0.58714 0.28453 1.0878 0.0881 0.50062 0.19957 1.0409 0.24768 1.2005 0.21447 0.71167 0.43108 2.2151 0.34292 2.3799-0.13721 0.2564-1.0366 0.2415-1.2199-0.0202zm0.71099-0.46979c-0.0381-0.17463-0.11369-0.5936-0.16799-0.93106-0.13028-0.81002-0.22862-0.84003-0.28001-0.0855-0.0866 1.2725-0.0742 1.334 0.26961 1.334 0.24207 0 0.24609-7e-3 0.17839-0.3175zm5.346 6.5518c-0.0617-0.0744-0.31771-2.8385-0.68723-7.4203-0.3239-4.016-0.58105-8.2135-0.75133-8.6804 2.0452-0.0734 3.8542-0.52471 5.7472-0.16571 2.3294 0.52574 3.0945 1.7747 3.0856 5.0367-6e-3 2.3465-0.2077 3.0721-1.1331 4.0846l-0.42733 0.46756 1.3203 2.2312c1.3812 2.334 1.5375 2.698 1.2294 2.8629l-0.17799 0.0953 0.16823 0.31386c0.3978 0.74221 0.26609 0.82666-1.4016 0.89868l-1.2734 0.055-0.26157-0.27633c-0.14388-0.15198-0.74618-1.0002-1.3384-1.885l-1.0768-1.6087 0.0542 0.508c0.33369 3.1279 0.24627 3.3982-1.1205 3.4647-0.59182 0.0288-1.2518 0.0713-1.4667 0.0944-0.27355 0.0294-0.42011 6e-3 -0.48898-0.0765zm2.7682-1.7023c0.022-0.022-0.0637-1.0557-0.1906-2.297-0.33288-3.2571-0.4132-3.255 1.7268-0.0455l1.4775 2.2158 1.1472-0.0553c0.63097-0.0304 1.1576-0.0636 1.1702-0.0737 0.0127-0.0101-0.70173-1.2443-1.5875-2.7425-1.8436-3.1184-1.7568-2.8621-1.1237-3.3194 1.3999-1.0111 2.1139-3.2885 1.5902-5.0724-0.0752-0.25612-0.16719-0.58056-0.2045-0.72098-0.3896-1.467-1.6928-2.2277-3.8855-2.268-0.74229-0.0136-3.6536 0.16067-3.7154 0.22246-0.0146 0.0146 1.1349 14.323 1.1507 14.324 0.21654 0.0106 2.4173-0.14003 2.4446-0.16731zm-0.56983-7.8219c-0.11168-0.20871-0.46548-3.5221-0.39555-3.7044 0.0688-0.17939 1.4404-0.1213 1.9131 0.081 1.5182 0.64972 1.1748 2.9716-0.53234 3.6003-0.60286 0.22198-0.87538 0.22837-0.98523 0.0231zm0.84495-0.31002c1.6831-0.59384 1.4156-1.988-0.3814-1.988h-0.34978l0.10509 0.9525c0.0578 0.52387 0.10697 1.0001 0.10925 1.0583 5e-3 0.13636 0.0743 0.13331 0.51684-0.0228zm6.201 9.3303c-0.0931-0.14902-0.0708 0.0931-0.6929-7.5441-0.3189-3.9152-0.57533-7.4615-0.5698-7.8806l0.0101-0.762 0.5819-0.0253c6.1299-0.26623 8.2199 1.4317 8.7817 7.1341 0.52557 5.335-1.0633 8.3805-4.6426 8.8985-0.22162 0.0321-0.44104 0.0865-0.4876 0.12099-0.15587 0.1154-2.9114 0.16927-2.9807 0.0583zm2.7267-1.6222c3.7971-0.21026 5.5535-2.9953 5.0024-7.932-0.42209-3.7812-1.7912-5.6562-4.4992-6.1615-0.42381-0.0791-3.9958-0.13939-4.0665-0.0687-0.0127 0.0128 0.24034 3.2042 0.56263 7.0918 0.32229 3.8877 0.58637 7.0954 0.58682 7.1284 0 0.0551 0.65067 0.0395 2.4138-0.0582zm-0.3243-2.5609c-0.0727-0.11759-0.83164-8.3764-0.80224-8.7296l0.0259-0.31063 0.59036-0.0255c3.1903-0.13761 4.2758 7.5585 1.2492 8.8562-0.49434 0.21196-1.0001 0.31161-1.0632 0.20948zm1.2442-0.67966c1.5982-1.1076 1.4743-5.3471-0.19233-6.5767-0.32112-0.23692-1.1655-0.44846-1.2906-0.32334-0.0682 0.0682 0.42047 6.0212 0.57068 6.9521 0.056 0.34745 0.36089 0.33005 0.91228-0.0521z" clip-path="url(#clipPath16435)" fill="#020102"/>
 </g>
</svg>
