<?xml version="1.0" encoding="UTF-8" standalone="no"?>
<!-- Created with Inkscape (http://www.inkscape.org/) -->

<svg
   version="1.1"
   id="svg840"
   xml:space="preserve"
   width="283.39825"
   height="83.910675"
   viewBox="0 0 283.39825 83.910675"
   sodipodi:docname="AtariAgeHorizontalColor.svg"
   inkscape:version="1.1.1 (3bf5ae0d25, 2021-09-20)"
   xmlns:inkscape="http://www.inkscape.org/namespaces/inkscape"
   xmlns:sodipodi="http://sodipodi.sourceforge.net/DTD/sodipodi-0.dtd"
   xmlns="http://www.w3.org/2000/svg"
   xmlns:svg="http://www.w3.org/2000/svg"><defs
     id="defs844"><clipPath
       clipPathUnits="userSpaceOnUse"
       id="clipPath858"><path
         d="M 0,360 H 1440 V 0 H 0 Z"
         id="path856" /></clipPath></defs><sodipodi:namedview
     id="namedview842"
     pagecolor="#ffffff"
     bordercolor="#111111"
     borderopacity="1"
     inkscape:pageshadow="0"
     inkscape:pageopacity="0"
     inkscape:pagecheckerboard="1"
     showgrid="false"
     fit-margin-top="0"
     fit-margin-left="0"
     fit-margin-right="0"
     fit-margin-bottom="0"
     inkscape:zoom="0.55989583"
     inkscape:cx="113.41395"
     inkscape:cy="-75.013953"
     inkscape:window-width="1920"
     inkscape:window-height="1011"
     inkscape:window-x="0"
     inkscape:window-y="32"
     inkscape:window-maximized="1"
     inkscape:current-layer="g846" /><g
     id="g846"
     inkscape:groupmode="layer"
     inkscape:label="AtariAgeLogos"
     transform="matrix(1.3333333,0,0,-1.3333333,-868.11077,165.0688)"><g
       id="g2410"><g
         id="g936"
         transform="translate(736.0483,103.1387)"><path
           d="M 0,0 H -0.071 L -3.703,-10.354 H 3.63 Z m -2.768,5.033 h 5.679 l 9.852,-25.092 H 7.191 l -2.159,5.752 H -5.141 l -2.193,-5.752 h -5.212 z"
           style="fill:#1c82ba;fill-opacity:1;fill-rule:nonzero;stroke:none"
           id="path938" /></g><g
         id="g940"
         transform="translate(751.7593,98.0703)"><path
           d="M 0,0 H -3.561 V 3.521 H 0 V 7.225 L 4.815,8.77 V 3.521 H 9.094 V 0 H 4.815 v -8.629 c 0,-1.582 0.432,-3.055 2.266,-3.055 0.862,0 1.69,0.18 2.191,0.504 l 0.147,-3.81 C 8.411,-15.277 7.296,-15.422 5.857,-15.422 2.083,-15.422 0,-13.086 0,-9.418 Z"
           style="fill:#1c82ba;fill-opacity:1;fill-rule:nonzero;stroke:none"
           id="path942" /></g><g
         id="g944"
         transform="translate(769.1929,86.1699)"><path
           d="M 0,0 C 1.475,0 2.624,0.646 3.38,1.654 4.171,2.695 4.386,4.027 4.386,5.465 H 2.302 C 0.143,5.465 -3.056,5.107 -3.056,2.266 -3.056,0.684 -1.726,0 0,0 m -5.644,14.453 c 1.87,0.863 4.387,1.402 6.434,1.402 5.647,0 7.981,-2.337 7.981,-7.802 V 5.678 C 8.771,3.809 8.808,2.41 8.845,1.041 8.88,-0.359 8.952,-1.652 9.06,-3.09 H 4.817 C 4.639,-2.121 4.639,-0.898 4.601,-0.324 H 4.53 c -1.116,-2.047 -3.523,-3.197 -5.716,-3.197 -3.273,0 -6.471,1.974 -6.471,5.5 0,2.767 1.33,4.386 3.164,5.285 1.832,0.896 4.205,1.08 6.219,1.08 h 2.66 c 0,2.982 -1.33,3.988 -4.17,3.988 -2.049,0 -4.1,-0.793 -5.714,-2.016 z"
           style="fill:#1c82ba;fill-opacity:1;fill-rule:nonzero;stroke:none"
           id="path946" /></g><g
         id="g948"
         transform="translate(781.3813,101.5918)"><path
           d="M 0,0 H 4.277 V -4.205 H 4.35 c 0.215,1.725 2.193,4.639 5.068,4.639 0.465,0 0.969,0 1.475,-0.145 v -4.853 c -0.434,0.252 -1.295,0.396 -2.159,0.396 -3.917,0 -3.917,-4.889 -3.917,-7.553 v -6.791 H 0 Z"
           style="fill:#1c82ba;fill-opacity:1;fill-rule:nonzero;stroke:none"
           id="path950" /></g><path
         d="m 793.928,101.592 h 4.815 V 83.08 h -4.815 z m 0,7.98 h 4.815 v -4.602 h -4.815 z"
         style="fill:#1c82ba;fill-opacity:1;fill-rule:nonzero;stroke:none"
         id="path952" /><g
         id="g954"
         transform="translate(812.7651,103.1387)"><path
           d="M 0,0 H -0.073 L -3.705,-10.354 H 3.63 Z m -2.768,5.033 h 5.679 l 9.85,-25.092 H 7.19 l -2.158,5.752 H -5.144 l -2.191,-5.752 h -5.213 z"
           style="fill:#ec7029;fill-opacity:1;fill-rule:nonzero;stroke:none"
           id="path956" /></g><g
         id="g958"
         transform="translate(839.0786,92.5352)"><path
           d="m 0,0 c 0,3.162 -1.223,5.75 -4.027,5.75 -3.27,0 -4.315,-3.02 -4.315,-5.859 0,-2.514 1.332,-5.61 4.1,-5.61 C -1.223,-5.719 0,-3.094 0,0 M 4.814,9.057 V -7.66 c 0,-5.033 -2.011,-9.777 -9.777,-9.777 -1.902,0 -4.096,0.287 -6.398,1.257 l 0.396,4.1 c 1.475,-0.789 3.881,-1.617 5.393,-1.617 5.322,0 5.572,3.99 5.572,7.189 h -0.072 c -0.901,-1.584 -3.055,-2.947 -5.75,-2.947 -5.467,0 -7.551,4.385 -7.551,9.346 0,4.459 2.301,9.599 7.838,9.599 2.441,0 4.349,-0.828 5.678,-2.949 h 0.072 v 2.516 z"
           style="fill:#ec7029;fill-opacity:1;fill-rule:nonzero;stroke:none"
           id="path960" /></g><g
         id="g962"
         transform="translate(859.0298,94.1523)"><path
           d="M 0,0 C -0.144,2.334 -1.223,4.35 -3.92,4.35 -6.615,4.35 -7.98,2.48 -8.197,0 Z m 3.236,-10.031 c -1.763,-0.969 -3.775,-1.473 -6.365,-1.473 -6.111,0 -9.67,3.522 -9.67,9.596 0,5.357 2.842,9.781 8.594,9.781 6.867,0 8.807,-4.711 8.807,-11.182 H -8.197 c 0.217,-2.984 2.301,-4.673 5.285,-4.673 2.338,0 4.349,0.863 6.148,1.871 z"
           style="fill:#ec7029;fill-opacity:1;fill-rule:nonzero;stroke:none"
           id="path964" /></g><g
         id="g966"
         transform="translate(714.0161,92.3486)"><path
           d="m 0,0 c 0.008,-17.38 -14.073,-31.475 -31.453,-31.48 -17.377,-0.008 -31.474,14.074 -31.48,31.452 -0.008,17.379 14.075,31.473 31.452,31.481 C -14.101,31.461 -0.008,17.378 0,0"
           style="fill:#1c82ba;fill-opacity:1;fill-rule:nonzero;stroke:none"
           id="path968" /></g><g
         id="g970"
         transform="translate(709.7427,92.3467)"><path
           d="m 0,0 c 0.007,-15.02 -12.162,-27.198 -27.181,-27.205 -15.018,-0.007 -27.2,12.162 -27.206,27.181 -0.007,15.019 12.164,27.199 27.182,27.206 C -12.186,27.189 -0.008,15.02 0,0"
           style="fill:#ffffff;fill-opacity:1;fill-rule:nonzero;stroke:none"
           id="path972" /></g><g
         id="g974"
         transform="translate(703.5269,92.3438)"><path
           d="m 0,0 c 0.004,-11.585 -9.382,-20.983 -20.969,-20.986 -11.585,-0.006 -20.98,9.382 -20.985,20.966 -0.006,11.587 9.382,20.983 20.968,20.99 C -9.4,20.975 -0.006,11.587 0,0"
           style="fill:#1c82ba;fill-opacity:1;fill-rule:nonzero;stroke:none"
           id="path976" /></g><g
         id="g978"
         transform="translate(684.4946,95.8506)"><path
           d="M 0,0 8.843,-19.395 H 4.606 l -6.419,14.997 -0.081,0.002 -6.405,-15.006 -4.275,0.001 8.863,19.399 z"
           style="fill:#ffffff;fill-opacity:1;fill-rule:nonzero;stroke:none"
           id="path980" /></g><g
         id="g982"
         transform="translate(684.3462,108.2168)"><path
           d="M 0,0 8.841,-19.394 H 4.604 L -1.813,-4.396 H -1.894 L -8.3,-19.4 l -4.275,-0.004 8.866,19.403 z"
           style="fill:#ffffff;fill-opacity:1;fill-rule:nonzero;stroke:none"
           id="path984" /></g></g></g></svg>
