<?xml version="1.0" encoding="UTF-8" standalone="no"?>
<!-- Created with Inkscape (http://www.inkscape.org/) -->

<svg
   width="5in"
   height="7in"
   viewBox="0 0 127 177.79999"
   version="1.1"
   id="svg16103"
   inkscape:version="1.1.2 (0a00cf5339, 2022-02-04)"
   sodipodi:docname="MapBack.svg"
   xmlns:inkscape="http://www.inkscape.org/namespaces/inkscape"
   xmlns:sodipodi="http://sodipodi.sourceforge.net/DTD/sodipodi-0.dtd"
   xmlns:xlink="http://www.w3.org/1999/xlink"
   xmlns="http://www.w3.org/2000/svg"
   xmlns:svg="http://www.w3.org/2000/svg">
  <sodipodi:namedview
     id="namedview16105"
     pagecolor="#ffffff"
     bordercolor="#df00ff"
     borderopacity="1"
     inkscape:showpageshadow="true"
     inkscape:pageopacity="0"
     inkscape:pagecheckerboard="1"
     inkscape:deskcolor="#d1d1d1"
     inkscape:document-units="mm"
     showgrid="false"
     inkscape:zoom="0.89515563"
     inkscape:cx="235.15464"
     inkscape:cy="397.69621"
     inkscape:window-width="1920"
     inkscape:window-height="1011"
     inkscape:window-x="0"
     inkscape:window-y="32"
     inkscape:window-maximized="1"
     inkscape:current-layer="layer1"
     inkscape:pageshadow="0"
     units="in"
     borderlayer="true"
     showguides="true"
     inkscape:guide-bbox="true" />
  <defs
     id="defs16100">
    <linearGradient
       inkscape:collect="always"
       id="linearGradient2357">
      <stop
         style="stop-color:#969696;stop-opacity:1"
         offset="0"
         id="stop2353" />
      <stop
         style="stop-color:#ffffff;stop-opacity:0.999924"
         offset="1"
         id="stop2355" />
    </linearGradient>
    <linearGradient
       inkscape:collect="always"
       xlink:href="#linearGradient9566"
       id="linearGradient13848"
       gradientUnits="userSpaceOnUse"
       x1="1792.868"
       y1="586.82983"
       x2="2075.5652"
       y2="730.72125"
       gradientTransform="matrix(0.26458333,0,0,0.26458333,-398.82797,-74.355163)" />
    <linearGradient
       inkscape:collect="always"
       id="linearGradient9566">
      <stop
         style="stop-color:#8866ce;stop-opacity:1;"
         offset="0"
         id="stop9562" />
      <stop
         style="stop-color:#954b88;stop-opacity:1;"
         offset="0.99728268"
         id="stop9564" />
    </linearGradient>
    <linearGradient
       inkscape:collect="always"
       xlink:href="#linearGradient9566"
       id="linearGradient16216"
       gradientUnits="userSpaceOnUse"
       x1="1792.868"
       y1="586.82983"
       x2="2075.5652"
       y2="730.72125"
       gradientTransform="matrix(0.26458333,0,0,0.26458333,-398.82797,-74.355163)" />
    <linearGradient
       inkscape:collect="always"
       xlink:href="#linearGradient9566"
       id="linearGradient16218"
       gradientUnits="userSpaceOnUse"
       x1="1792.868"
       y1="586.82983"
       x2="2075.5652"
       y2="730.72125"
       gradientTransform="matrix(0.26458333,0,0,0.26458333,-398.82797,-74.355163)" />
    <clipPath
       clipPathUnits="userSpaceOnUse"
       id="clipPath16435">
      <g
         id="g16439">
        <rect
           style="fill:#8d56a8;stroke-width:0.443971;stroke-linecap:square;stroke-linejoin:round;paint-order:markers stroke fill"
           id="rect16437"
           width="108.44418"
           height="59.617008"
           x="51.449673"
           y="75.773621"
           rx="1.4999996"
           ry="1.4999996" />
      </g>
    </clipPath>
    <clipPath
       clipPathUnits="userSpaceOnUse"
       id="clipPath16441">
      <g
         id="g16445">
        <rect
           style="fill:#8d56a8;stroke-width:0.443971;stroke-linecap:square;stroke-linejoin:round;paint-order:markers stroke fill"
           id="rect16443"
           width="108.44418"
           height="59.617008"
           x="51.449673"
           y="75.773621"
           rx="1.4999996"
           ry="1.4999996" />
      </g>
    </clipPath>
    <clipPath
       clipPathUnits="userSpaceOnUse"
       id="clipPath16447">
      <g
         id="g16451">
        <rect
           style="fill:#8d56a8;stroke-width:0.443971;stroke-linecap:square;stroke-linejoin:round;paint-order:markers stroke fill"
           id="rect16449"
           width="108.44418"
           height="59.617008"
           x="51.449673"
           y="75.773621"
           rx="1.4999996"
           ry="1.4999996" />
      </g>
    </clipPath>
    <clipPath
       clipPathUnits="userSpaceOnUse"
       id="clipPath16453">
      <g
         id="g16457">
        <rect
           style="fill:#8d56a8;stroke-width:0.443971;stroke-linecap:square;stroke-linejoin:round;paint-order:markers stroke fill"
           id="rect16455"
           width="108.44418"
           height="59.617008"
           x="51.449673"
           y="75.773621"
           rx="1.4999996"
           ry="1.4999996" />
      </g>
    </clipPath>
    <clipPath
       clipPathUnits="userSpaceOnUse"
       id="clipPath16459">
      <g
         id="g16463">
        <rect
           style="fill:#8d56a8;stroke-width:0.443971;stroke-linecap:square;stroke-linejoin:round;paint-order:markers stroke fill"
           id="rect16461"
           width="108.44418"
           height="59.617008"
           x="51.449673"
           y="75.773621"
           rx="1.4999996"
           ry="1.4999996" />
      </g>
    </clipPath>
    <clipPath
       clipPathUnits="userSpaceOnUse"
       id="clipPath16465">
      <g
         id="g16469">
        <rect
           style="fill:#8d56a8;stroke-width:0.443971;stroke-linecap:square;stroke-linejoin:round;paint-order:markers stroke fill"
           id="rect16467"
           width="108.44418"
           height="59.617008"
           x="51.449673"
           y="75.773621"
           rx="1.4999996"
           ry="1.4999996" />
      </g>
    </clipPath>
    <radialGradient
       inkscape:collect="always"
       xlink:href="#linearGradient154308"
       id="radialGradient154312"
       cx="36.57056"
       cy="45.426498"
       fx="36.57056"
       fy="45.426498"
       r="30.673664"
       gradientTransform="matrix(2.0411385,0,0,2.8009207,40.554121,37.681608)"
       gradientUnits="userSpaceOnUse" />
    <linearGradient
       inkscape:collect="always"
       id="linearGradient154308">
      <stop
         style="stop-color:#ffffff;stop-opacity:1;"
         offset="0"
         id="stop154304" />
      <stop
         style="stop-color:#ffffff;stop-opacity:0;"
         offset="1"
         id="stop154306" />
    </linearGradient>
    <clipPath
       clipPathUnits="userSpaceOnUse"
       id="clipPath858">
      <path
         d="M 0,360 H 1440 V 0 H 0 Z"
         id="path856" />
    </clipPath>
    <rect
       x="400.25299"
       y="175.24129"
       width="81.916733"
       height="27.508118"
       id="rect1011" />
    <marker
       style="overflow:visible"
       id="Arrow1Lstart"
       refX="0"
       refY="0"
       orient="auto"
       inkscape:stockid="Arrow1Lstart"
       inkscape:isstock="true">
      <path
         transform="matrix(0.8,0,0,0.8,10,0)"
         style="fill:context-stroke;fill-rule:evenodd;stroke:context-stroke;stroke-width:1pt"
         d="M 0,0 5,-5 -12.5,0 5,5 Z"
         id="path2818" />
    </marker>
    <marker
       style="overflow:visible"
       id="marker3096"
       refX="0"
       refY="0"
       orient="auto"
       inkscape:stockid="Arrow1Lend"
       inkscape:isstock="true">
      <path
         transform="matrix(-0.8,0,0,-0.8,-10,0)"
         style="fill:context-stroke;fill-rule:evenodd;stroke:context-stroke;stroke-width:1pt"
         d="M 0,0 5,-5 -12.5,0 5,5 Z"
         id="path3094" />
    </marker>
    <marker
       style="overflow:visible"
       id="marker2037"
       refX="0"
       refY="0"
       orient="auto"
       inkscape:stockid="Arrow1Lstart"
       inkscape:isstock="true">
      <path
         transform="matrix(0.8,0,0,0.8,10,0)"
         style="fill:context-stroke;fill-rule:evenodd;stroke:context-stroke;stroke-width:1pt"
         d="M 0,0 5,-5 -12.5,0 5,5 Z"
         id="path2035" />
    </marker>
    <marker
       style="overflow:visible"
       id="marker2041"
       refX="0"
       refY="0"
       orient="auto"
       inkscape:stockid="Arrow1Lend"
       inkscape:isstock="true">
      <path
         transform="matrix(-0.8,0,0,-0.8,-10,0)"
         style="fill:context-stroke;fill-rule:evenodd;stroke:context-stroke;stroke-width:1pt"
         d="M 0,0 5,-5 -12.5,0 5,5 Z"
         id="path2039" />
    </marker>
    <linearGradient
       inkscape:collect="always"
       xlink:href="#linearGradient2357"
       id="linearGradient2359"
       x1="75.151344"
       y1="228.54326"
       x2="75.151344"
       y2="212.17085"
       gradientUnits="userSpaceOnUse" />
  </defs>
  <g
     inkscape:label="Layer 1"
     inkscape:groupmode="layer"
     id="layer1"
     transform="translate(-51.449673,-75.773621)">
    <rect
       style="fill:#dcd76d;fill-opacity:1;stroke-width:0.204264;stroke-linecap:square;stroke-linejoin:round;paint-order:markers stroke fill"
       id="rect3156"
       width="132.81764"
       height="195.70189"
       x="48.790886"
       y="73.878105"
       rx="0.46130332"
       ry="1.0324495" />
    <ellipse
       style="vector-effect:non-scaling-stroke;fill:url(#radialGradient154312);fill-opacity:1;stroke:none;stroke-width:3.9766e-05;stroke-linecap:square;stroke-linejoin:round;stroke-miterlimit:4;stroke-dasharray:none;stroke-opacity:1;-inkscape-stroke:hairline;paint-order:markers stroke fill"
       id="path154016"
       cx="115.19971"
       cy="164.91769"
       rx="62.609196"
       ry="85.914497" />
    <g
       id="g3297"
       transform="matrix(1.080681,0,0,1.080681,-4.3967118,-5.1772472)">
      <path
         style="fill:url(#linearGradient16216);fill-opacity:1;stroke-width:0.0846667"
         d="m 75.08094,119.43757 c -9.4047,-1.78179 -15.92101,-16.61002 -12.53876,-28.406013 3.45678,-12.05594 15.02182,-13.6739 21.9828,-3.0292 0.96199,1.4711 2.53523,4.94405 2.72986,5.92523 l 0.0498,0.25104 -1.75521,0.32081 c -0.96539,0.17645 -1.78263,0.29075 -1.8161,0.254 -0.0335,-0.0367 -0.2412,-0.52401 -0.46165,-1.08281 -5.27571,-13.37393 -17.54076,-10.61722 -17.51629,3.937 0.0249,14.788323 12.38824,23.547003 17.6793,12.524693 1.26606,-2.63743 2.14725,-9.25015 1.24963,-9.37739 -0.15923,-0.0226 -3.64956,0.64525 -4.1887,0.80144 -0.13973,0.0405 -0.14909,-0.0328 -0.127,-0.99587 l 0.0238,-1.039563 1.48167,-0.3179 c 0.81491,-0.17484 1.78646,-0.37387 2.159,-0.44228 0.37253,-0.0684 1.59991,-0.29847 2.72748,-0.51124 5.4804,-1.03413 13.45258,-2.11276 21.61418,-2.92437 6.7858,-0.6748 11.03226,-1.01365 20.74334,-1.65525 0.71977,-0.0476 4.36798,-0.24804 6.90033,-0.3792 7.88067,-0.40816 12.28315,-1.48609 13.71193,-3.3573 l 0.28482,-0.37304 0.25839,0.31347 c 0.14214,0.17242 0.28258,0.42353 0.31213,0.55803 0.10504,0.47831 0.93655,0.0965 2.42747,-1.1146 l 0.73872,-0.60009 0.13131,0.20041 c 0.0722,0.11022 0.17286,0.4437 0.22363,0.74106 0.0508,0.29736 0.12023,0.57109 0.1543,0.60827 0.0341,0.0372 0.99788,-0.48661 2.14178,-1.16399 2.66615,-1.57884 2.38583,-1.51279 2.32405,-0.54761 -0.30459,4.75809 -4.20529,6.34439 -16.73953,6.80752 -21.58262,0.79745 -38.69047,2.25317 -51.35033,4.36941 -2.40263,0.401633 -2.14389,0.19534 -2.06087,1.643063 0.61426,10.71053 -5.86025,19.50879 -13.49528,18.06227 z"
         id="path6646"
         sodipodi:nodetypes="sssscsscssssscssssssscssscsssssssss"
         clip-path="url(#clipPath16465)" />
      <path
         style="fill:url(#linearGradient16218);fill-opacity:1;stroke-width:0.0846667"
         d="m 96.28885,127.27283 c -0.75253,-0.20325 -0.89813,1.8e-4 -0.89262,-0.49965 0.0342,-3.09581 3.84754,-6.477 8.40332,-8.41117 6.00448,-2.54921 15.90874,-3.5116 21.4579,-2.64282 0.4314,0.0675 1.92735,0.16131 3.32435,0.20837 2.71042,0.0913 5.25119,0.26019 7.25004,0.42099 8.66923,0.69742 16.86763,-1.03091 18.59841,-4.56632 1.47613,-3.01523 0.18391,-5.69552 -3.16627,-6.56597 -2.14233,-0.55662 -2.9056,-1.60108 -2.91045,-3.98264 -0.006,-3.026123 1.3548,-4.186973 4.90861,-4.186973 1.78421,0 3.01466,0.32713 3.63402,0.96617 l 0.2599,0.26815 -0.63211,0.91811 c -0.34767,0.50496 -0.65011,0.936103 -0.6721,0.958083 -0.022,0.022 -0.14692,-0.0337 -0.27768,-0.1238 -1.16186,-0.800573 -3.78555,-0.608443 -4.4015,0.32232 -0.95075,1.43668 -0.0135,2.65303 2.69565,3.49879 2.63592,0.82285 3.75415,2.48948 3.75415,5.5952 0,6.59005 -6.57228,9.7665 -19.64267,9.49348 -2.06375,-0.0431 -4.77834,-0.22823 -5.10257,-0.34797 -0.059,-0.0218 -0.49712,-0.0615 -0.97366,-0.0882 -0.47654,-0.0267 -1.38078,-0.0845 -2.00943,-0.12838 -10.05375,-0.70181 -19.64098,1.6708 -24.892,5.84484 -4.25527,3.38249 -6.20274,3.72745 -8.71329,3.04938 z m 38.68529,-11.27471 c -436.24617,-103.91918 -218.123082,-51.959593 0,0 z m 22.95136,-4.10016 c 0.004,-0.0986 0.0241,-0.11869 0.0511,-0.0512 0.0243,0.0611 0.0214,0.13414 -0.007,0.16228 -0.0281,0.0281 -0.0482,-0.0219 -0.0445,-0.11113 z"
         id="path6577"
         sodipodi:nodetypes="ssssssssssscssssssssssssccscsss"
         clip-path="url(#clipPath16459)" />
      <path
         style="fill:url(#linearGradient13848);fill-opacity:1;stroke-width:0.0846667"
         d="m 92.08899,117.01582 c 0.003,-0.0349 -0.29139,-3.59167 -0.65183,-7.6764 -0.36041,-4.08473 -0.63823,-7.44263 -0.61732,-7.46201 0.25566,-0.237 4.03502,-0.60848 4.78493,-0.47031 2.30992,0.42559 3.60201,3.26384 2.80027,6.1511 -0.29255,1.05353 -1.47595,2.57017 -1.83319,2.34939 -0.54504,-0.33685 -0.29551,0.19447 1.63052,3.47194 0.86156,1.46608 1.35758,2.39068 1.29998,2.42311 -0.18105,0.1019 -2.3763,0.33723 -2.40284,0.25759 -0.0146,-0.0434 -0.61664,-1.00725 -1.33813,-2.14183 -1.9403,-3.05125 -1.88815,-3.05943 -1.58282,0.2482 0.11735,1.27109 0.19738,2.32703 0.17788,2.34654 -0.0957,0.0957 -2.27203,0.58569 -2.26745,0.50268 z m 2.83252,-8.9312 c 1.40846,-0.81792 1.63944,-2.53441 -0.58105,-3.61784 -0.79351,-0.38716 -1.00587,-0.55957 -0.78772,1.88871 0.23368,2.62227 0.44815,2.26375 1.36877,1.72913 z m 6.22036,7.51209 c -0.0191,-0.10187 -1.32924,-15.00594 -1.32004,-15.01695 0.0324,-0.0387 2.09008,-0.3043 2.12011,-0.27369 0.0188,0.0191 0.33398,3.40665 0.70048,7.5278 l 0.87959,7.6365 -0.90599,0.064 c -0.44609,0.0315 -1.04468,0.0138 -1.19602,0.0366 -0.15135,0.0229 -0.27652,0.0344 -0.27813,0.0257 z m 3.64167,-2.04204 -0.10726,-1.44514 1.67097,-4.85075 c 0.91901,-2.66792 1.64963,-4.90629 1.62359,-4.97417 -0.0618,-0.16105 -0.0884,-0.15997 -2.27105,0.0921 -1.02637,0.11854 -1.87701,0.20427 -1.89029,0.1905 -0.0428,-0.0444 -0.27831,-2.47912 -0.24331,-2.51557 0.0472,-0.0491 6.47433,-0.706983 6.51447,-0.666843 0.018,0.0179 0.076,0.640443 0.12911,1.383343 l 0.0965,1.35072 -1.68738,4.953 c -1.68283,4.93968 -1.79761,5.36347 -1.41245,5.21568 0.19164,-0.0736 3.93565,-0.58068 3.97756,-0.53877 0.0516,0.0516 0.23558,2.34858 0.19161,2.39255 -0.0193,0.0195 -1.48648,0.22058 -3.26006,0.44693 l -3.22472,0.41155 z m 8.12429,0.28115 c -0.003,-0.0647 -0.0545,-0.61292 -0.11419,-1.21829 -0.0597,-0.60536 -0.0804,-1.13876 -0.0461,-1.18533 0.11562,-0.15668 3.97592,-9.76241 3.97592,-9.89342 0,-0.21756 -0.0587,-0.21752 -2.44295,0.002 -1.27133,0.11688 -2.32524,0.19876 -2.34207,0.18194 -0.0365,-0.0365 -0.18894,-2.553363 -0.15735,-2.597243 0.0251,-0.035 6.82572,-0.61286 6.85409,-0.58243 0.0103,0.0111 0.0758,0.6602 0.14557,1.44251 l 0.12682,1.422373 -1.94583,4.83282 c -1.70815,4.24245 -1.93069,4.84796 -1.82192,4.95674 0.1129,0.1129 2.82406,-0.11216 4.3479,-0.36092 l 0.26659,-0.0435 0.0479,0.48906 c 0.0265,0.26899 0.071,0.81404 0.0993,1.21122 l 0.0514,0.72216 -3.11753,0.32348 c -1.71466,0.17792 -3.29854,0.34403 -3.51973,0.36914 -0.30723,0.0349 -0.40349,0.0179 -0.40783,-0.072 z m 8.64013,-0.9764 c -0.003,-0.24167 1.09599,-14.736603 1.22055,-14.651403 0.01,0.006 0.57917,-0.028 1.27146,-0.0423 l 1.25865,-0.0261 1.9264,7.069663 c 1.05955,3.88832 1.9019,7.09397 1.87195,7.12366 -0.0582,0.0577 -2.29616,0.27717 -2.33312,0.22879 -0.0122,-0.0158 -0.14779,-0.60028 -0.30157,-1.29878 -0.35454,-1.61067 -0.26898,-1.51642 -1.3126,-1.44577 -1.16715,0.079 -1.13715,0.0389 -1.24841,1.66705 -0.10361,1.51646 -0.004,1.39293 -1.19001,1.46982 -0.51473,0.0334 -0.98669,0.0802 -1.04881,0.104 -0.0777,0.0298 -0.11343,-0.0321 -0.11449,-0.19854 z m 3.97918,-5.19171 c 0.18124,-0.0454 -0.12846,-1.66819 -0.34293,-2.37985 -0.0481,-0.15968 -0.15957,-0.69993 -0.24768,-1.20055 -0.0881,-0.50062 -0.21613,-0.99012 -0.28453,-1.08777 l -0.12435,-0.17754 -0.1069,0.19876 c -0.073,0.1359 -0.11493,0.73434 -0.13234,1.89211 -0.014,0.93133 -0.0449,1.88569 -0.0686,2.12079 -0.0738,0.73157 0.42532,0.85511 1.30734,0.63405 z m -0.73753,-0.23119 c 0.0824,-0.0214 0.19667,-0.02 0.254,0.003 0.0573,0.0232 -0.0101,0.0408 -0.14978,0.039 -0.1397,-0.002 -0.18661,-0.0207 -0.10422,-0.0422 z m -0.26342,-0.19532 c 0,-0.11642 0.0193,-0.16404 0.0427,-0.10583 0.0236,0.0582 0.0236,0.15345 0,0.21166 -0.0235,0.0582 -0.0427,0.0106 -0.0427,-0.10583 z m -0.007,-0.47272 c 0.004,-0.0986 0.0241,-0.1187 0.0511,-0.0512 0.0243,0.0611 0.0214,0.13415 -0.007,0.16228 -0.0282,0.0281 -0.0482,-0.0219 -0.0445,-0.11112 z m 0.01,-0.41628 c 0.003,-0.1397 0.0206,-0.1866 0.0422,-0.10422 0.0214,0.0824 0.0201,0.19667 -0.003,0.254 -0.0233,0.0573 -0.0407,-0.0101 -0.039,-0.14978 z m 6.15849,5.84228 c -0.0159,-8e-4 -1.16528,-14.309223 -1.1507,-14.323803 0.0618,-0.0618 2.97312,-0.2361 3.71544,-0.22246 2.19273,0.0403 3.49591,0.80096 3.88551,2.268 0.0373,0.140423 0.12933,0.464863 0.2045,0.720983 0.52363,1.78385 -0.19037,4.06126 -1.59025,5.07238 -0.63315,0.45731 -0.71994,0.20096 1.12368,3.31937 0.88577,1.49827 1.60015,2.73241 1.5875,2.74254 -0.0127,0.0101 -0.53925,0.0433 -1.17022,0.0737 l -1.14718,0.0553 -1.47749,-2.21581 c -2.14,-3.20944 -2.05968,-3.21156 -1.7268,0.0455 0.12686,1.24132 0.21264,2.27496 0.1906,2.29698 -0.0273,0.0273 -2.22805,0.17791 -2.44459,0.16732 z m 2.92791,-8.17123 c 2.07671,-1.06313 1.17562,-3.20746 -0.52417,-3.40844 -0.97758,-0.11558 -1.02473,-0.3964 -0.79613,1.73067 0.23863,2.2202 0.35338,2.17277 1.3203,1.67777 z m 6.30557,7.63824 c 0,-0.033 -0.26453,-3.24076 -0.58682,-7.12842 -0.32229,-3.88765 -0.57547,-7.078963 -0.56263,-7.091793 0.0707,-0.0707 3.64273,-0.0104 4.06654,0.0687 2.70793,0.50526 4.07709,2.38027 4.49918,6.161443 0.55105,4.93667 -1.20536,7.72169 -5.00242,7.93195 -1.76318,0.0976 -2.41305,0.1133 -2.41385,0.0582 z m 3.15275,-2.82853 c 1.1285,-0.48389 1.67082,-1.70005 1.67251,-3.75076 0.003,-3.43533 -1.02338,-4.20032 -2.83657,-4.84124 l -0.67551,-0.23877 -0.0259,0.31063 c -0.0294,0.3532 0.72957,8.61201 0.80225,8.7296 0.0631,0.10213 0.56885,0.002 1.0632,-0.20947 z m 0.44643,-0.74509 c 0.0843,-0.0931 0.1723,-0.16934 0.19558,-0.16934 0.0233,0 -0.0266,0.0762 -0.11091,0.16934 -0.0843,0.0931 -0.1723,0.16933 -0.19558,0.16933 -0.0233,0 0.0266,-0.0762 0.11091,-0.16933 z m 0.8177,-3.048 c 0,-0.11642 0.0193,-0.16405 0.0427,-0.10584 0.0236,0.0582 0.0236,0.15346 0,0.21167 -0.0236,0.0582 -0.0427,0.0106 -0.0427,-0.10583 z m -2.48986,-3.61208 c 0.0582,-0.0235 0.15345,-0.0235 0.21166,0 0.0582,0.0235 0.0106,0.0427 -0.10583,0.0427 -0.11642,0 -0.16404,-0.0192 -0.10583,-0.0427 z m -42.97614,6.40608 c 0,-0.11642 0.0193,-0.16405 0.0427,-0.10584 0.0236,0.0582 0.0236,0.15346 0,0.21167 -0.0236,0.0582 -0.0427,0.0106 -0.0427,-0.10583 z m 48.85266,-0.0847 c 0,-0.11642 0.0193,-0.16404 0.0427,-0.10583 0.0236,0.0582 0.0236,0.15345 0,0.21166 -0.0236,0.0582 -0.0427,0.0106 -0.0427,-0.10583 z m -48.85933,-2.92806 c 0.004,-0.0986 0.0241,-0.11869 0.0511,-0.0512 0.0243,0.0611 0.0214,0.13414 -0.007,0.16228 -0.0281,0.0281 -0.0481,-0.0219 -0.0445,-0.11113 z m 48.85933,-0.45861 c 0,-0.11641 0.0193,-0.16404 0.0427,-0.10583 0.0236,0.0582 0.0236,0.15346 0,0.21167 -0.0236,0.0582 -0.0427,0.0106 -0.0427,-0.10584 z m -0.0847,-0.84666 c 0,-0.11642 0.0193,-0.16405 0.0427,-0.10584 0.0236,0.0582 0.0236,0.15346 0,0.21167 -0.0236,0.0582 -0.0427,0.0106 -0.0427,-0.10583 z m -0.0913,-0.72673 c 0.004,-0.0986 0.0241,-0.11869 0.0511,-0.0512 0.0243,0.0611 0.0214,0.13414 -0.007,0.16228 -0.0281,0.0281 -0.0481,-0.0219 -0.0445,-0.11113 z m -9.82133,-1.86275 c 0.004,-0.0986 0.0241,-0.11869 0.0511,-0.0511 0.0243,0.0611 0.0214,0.13414 -0.007,0.16227 -0.0281,0.0281 -0.0481,-0.0219 -0.0445,-0.11112 z m 7.94118,-2.384783 c -0.10531,-0.13429 -0.10232,-0.13728 0.032,-0.032 0.14102,0.11061 0.1859,0.18014 0.1162,0.18014 -0.0175,0 -0.0843,-0.0667 -0.14816,-0.14817 z m -9.01425,-0.127 -0.16129,-0.1905 0.1905,0.16129 c 0.10477,0.0887 0.1905,0.17443 0.1905,0.1905 0,0.0677 -0.0681,0.0177 -0.21971,-0.16129 z"
         id="path6652"
         sodipodi:nodetypes="cssssssssssscsssscssscsscccssssssscssscscccsssssssscsssccscssccssscsssssssssssssscsssssscssscssscssssssssssssssssscsssssssscssssscssscsssssssssscssssssscssscssscsssscssscssscsssscsssssssscsss"
         clip-path="url(#clipPath16453)"
         transform="translate(0.83646142,-0.36062784)" />
      <path
         style="fill:#030203;stroke-width:0.0846667"
         d="m 75.01506,120.76053 c -8.70069,-1.57651 -15.14444,-14.07756 -13.50542,-26.200903 2.04896,-15.15532 15.3234,-18.95831 23.34699,-6.68866 1.59531,2.43951 3.2939,6.604 2.69364,6.604 -0.0428,0 -0.0191,0.17238 0.0526,0.38306 0.27368,0.80322 0.26239,0.80992 -2.14193,1.27027 -2.06831,0.39602 -1.89032,0.42614 -2.16332,-0.36594 -5.51399,-15.99792 -20.71663,-9.18147 -16.58355,7.435623 3.77573,15.18046 17.11465,15.41892 17.92181,0.32039 0.0705,-1.31909 0.29263,-1.24766 -2.27938,-0.73304 -2.71997,0.54424 -2.42977,0.72626 -2.42977,-1.524 0,-2.227633 -0.27546,-1.926243 2.24366,-2.454903 12.78996,-2.68406 30.77853,-4.6487 53.213,-5.81171 8.94533,-0.46373 12.95225,-1.48639 14.39333,-3.67351 l 0.127,-0.19275 0.3411,0.24721 c 0.19315,0.13998 0.41,0.40005 0.49999,0.59958 l 0.15891,0.35237 0.47196,-0.26637 c 0.61812,-0.34884 1.3017,-0.85521 1.84386,-1.36585 0.39798,-0.37485 0.45317,-0.40178 0.61637,-0.30058 0.23082,0.14314 0.59748,0.87659 0.59748,1.19516 0,0.31723 -0.12816,0.3766 2.25213,-1.04317 2.54884,-1.5203 2.45743,-1.54965 2.37803,0.76349 -0.19019,5.54191 -3.94843,7.11682 -18.17683,7.61711 -4.39838,0.15465 -8.92844,0.35577 -9.05933,0.4022 -0.0699,0.0248 -0.81108,0.0602 -1.64719,0.0788 -0.83611,0.0186 -1.54096,0.0653 -1.56633,0.10387 -2.50508,0.15218 -1.28016,0.0392 -2.92481,0.13573 -1.07104,0.0684 -2.30929,0.14381 -2.75167,0.16758 -0.44238,0.0238 -1.05198,0.0638 -1.35467,0.089 -1.47354,0.12272 -4.21872,0.30796 -5.16466,0.34849 -0.58209,0.025 -1.47744,0.10169 -1.98967,0.17055 -0.51223,0.0689 -1.17898,0.14103 -1.48167,0.16037 -0.30268,0.0193 -0.70273,0.0525 -0.889,0.0737 -0.18626,0.0212 -0.64672,0.059 -1.02322,0.084 -4.26069,0.2832 -14.13081,1.485223 -19.91812,2.425703 -1.13337,0.18418 -2.06682,0.33492 -2.07434,0.33499 -0.007,6e-5 -0.0177,0.86684 -0.0225,1.92617 -0.0508,11.12142 -6.21016,18.74424 -14.00458,17.33194 z m 4.19203,-1.76867 c 5.94116,-1.78432 9.85507,-9.14353 9.36913,-17.61656 -0.083,-1.447723 -0.34176,-1.24143 2.06087,-1.643063 12.65986,-2.11624 29.76771,-3.57196 51.35033,-4.36941 12.53424,-0.46313 16.43494,-2.04943 16.73953,-6.80752 0.0618,-0.96518 0.3421,-1.03123 -2.32405,0.54761 -1.1439,0.67738 -2.10767,1.20118 -2.14178,1.16399 -0.0341,-0.0372 -0.1035,-0.31091 -0.1543,-0.60827 -0.0508,-0.29736 -0.1514,-0.63084 -0.22363,-0.74106 l -0.13131,-0.20041 -0.73872,0.60009 c -1.49092,1.21111 -2.32243,1.59291 -2.42747,1.1146 -0.0295,-0.1345 -0.16999,-0.38561 -0.31213,-0.55803 l -0.25839,-0.31347 -0.28482,0.37304 c -1.42878,1.87121 -5.83126,2.94914 -13.71193,3.3573 -2.53235,0.13116 -6.18056,0.33164 -6.90033,0.3792 -9.71108,0.6416 -13.95754,0.98045 -20.74334,1.65525 -8.1616,0.81161 -16.13378,1.89024 -21.61418,2.92437 -1.12757,0.21277 -2.35495,0.44282 -2.72748,0.51124 -0.37254,0.0684 -1.34409,0.26744 -2.159,0.44228 l -1.48167,0.3179 -0.0238,1.039563 c -0.022,0.96306 -0.0127,1.03635 0.127,0.99587 0.53914,-0.15619 4.02947,-0.82401 4.1887,-0.80144 0.89762,0.12724 0.0164,6.73996 -1.24963,9.37739 -5.29106,11.02231 -17.65443,2.26363 -17.6793,-12.524693 -0.0243,-14.55422 12.24058,-17.31093 17.51629,-3.937 0.22045,0.5588 0.42818,1.04607 0.46165,1.08281 0.0335,0.0367 0.85071,-0.0776 1.8161,-0.254 l 1.75521,-0.32081 -0.0498,-0.25104 c -0.19463,-0.98118 -1.77488,-4.33152 -2.73688,-5.80262 -8.55784,-13.08663 -22.72575,-7.10023 -22.743,9.60966 -0.0132,12.861453 8.95866,23.802083 17.43213,21.257233 z"
         id="path6644"
         sodipodi:nodetypes="sssscscssssssscsscsssssssssccssssssssscssssssssssscssscsssssssccssscssscssss"
         clip-path="url(#clipPath16447)" />
      <path
         style="fill:#0a0609;stroke-width:0.0846667"
         d="m 96.62596,128.87834 c -1.37094,-0.28775 -1.59795,-0.46139 -1.44375,-1.1042 0.0763,-0.31804 0.0786,-0.45602 0.009,-0.52592 -0.15206,-0.15206 -0.11343,-0.38429 0.23161,-1.39195 1.54477,-4.51161 5.89638,-7.47717 13.93997,-9.49993 3.70491,-0.93169 10.15873,-1.33916 16.17134,-1.02101 2.57632,0.13632 7.71884,0.49786 9.69433,0.68154 4.90582,0.45615 10.01802,0.17849 13.53426,-0.73511 6.3922,-1.66083 8.00261,-7.14069 2.51007,-8.54112 -2.61913,-0.6678 -3.3156,-1.79682 -3.23831,-5.24964 0.0706,-3.155843 0.91016,-4.265803 3.52462,-4.659903 2.47338,-0.37285 4.57512,0.008 5.6624,1.026 l 0.4454,0.417 -0.21257,0.31279 c -0.26373,0.38814 -0.26371,0.43681 0,0.68156 l 0.21278,0.1973 -0.75763,1.103563 c -0.96026,1.39867 -0.91962,1.36602 -1.31215,1.05409 -1.17891,-0.9369 -4.28244,-0.65189 -4.28244,0.39327 0,0.39285 1.23476,1.11539 2.5605,1.49833 2.32355,0.67114 3.73968,2.28964 4.05527,4.63474 1.16253,8.63635 -5.38326,12.66796 -19.99287,12.31392 -2.21895,-0.0538 -2.55066,-0.0769 -5.82739,-0.40559 -4.25162,-0.42653 -10.04925,-0.25892 -13.81527,0.3994 -0.67522,0.11803 -1.45627,0.25387 -1.73567,0.30187 -4.42714,0.76048 -8.47164,2.51542 -11.38767,4.9412 -3.07311,2.55644 -6.11558,3.68784 -8.54551,3.1778 z m 3.29618,-1.68708 c 1.49296,-0.43065 3.26403,-1.46534 5.08,-2.96781 5.16829,-4.27607 14.83825,-6.54665 24.892,-5.84484 0.62865,0.0439 1.53289,0.10165 2.00943,0.12838 0.47654,0.0267 0.91469,0.0664 0.97366,0.0882 0.32423,0.11974 3.03882,0.30486 5.10257,0.34797 13.07039,0.27302 19.64267,-2.90343 19.64267,-9.49348 0,-3.10572 -1.11823,-4.77235 -3.75415,-5.5952 -2.70925,-0.84576 -3.6464,-2.06211 -2.69565,-3.49879 0.61595,-0.930763 3.23964,-1.122893 4.4015,-0.32232 0.13076,0.0901 0.2557,0.14579 0.27768,0.1238 0.022,-0.022 0.32443,-0.453123 0.6721,-0.958083 l 0.63211,-0.91811 -0.2599,-0.26815 c -0.61936,-0.63904 -1.84981,-0.96617 -3.63402,-0.96617 -3.55381,0 -4.91474,1.16085 -4.90861,4.186973 0.005,2.38156 0.76812,3.42602 2.91045,3.98264 5.71984,1.48614 4.82227,8.03429 -1.37933,10.06258 -3.31682,1.08478 -9.76625,1.60194 -14.06385,1.12773 -1.99321,-0.21994 -4.52858,-0.38771 -7.239,-0.47901 -1.397,-0.0471 -2.87491,-0.1045 -3.31041,-0.13621 -3.37465,-0.24567 -7.22014,-0.21655 -11.40949,0.18216 -3.44604,0.32796 -7.25988,1.33929 -9.78922,2.38489 -4.57393,1.89082 -8.75204,5.93566 -8.53141,8.2593 0.0763,0.8029 2.49021,1.11894 4.38087,0.57356 z m -1.6764,-1.88352 c -0.0559,-0.0559 -0.0992,-0.17971 -0.0962,-0.27517 0.005,-0.16831 0.008,-0.16801 0.0793,0.01 0.0406,0.1008 0.14298,0.22346 0.22746,0.27259 0.12303,0.0716 0.12748,0.0898 0.0222,0.0919 -0.0722,0.001 -0.17695,-0.0432 -0.23283,-0.099 z m 1.04201,-0.15143 c -0.0297,-0.048 0.004,-0.0622 0.0797,-0.0333 0.14669,0.0563 0.17352,0.11697 0.0517,0.11697 -0.0438,0 -0.10295,-0.0377 -0.13139,-0.0837 z m 1.14474,-0.0405 c -0.0567,-0.0683 -0.0834,-0.17306 -0.0594,-0.23283 0.0281,-0.07 0.046,-0.0574 0.0503,0.0353 0.004,0.0792 0.0734,0.18279 0.15486,0.23026 0.0815,0.0475 0.1052,0.0875 0.0527,0.0889 -0.0525,10e-4 -0.14184,-0.0533 -0.19852,-0.12158 z m 0.98444,-0.11535 c -0.0771,-0.0852 -0.14013,-0.20459 -0.14013,-0.26541 0,-0.0608 0.0816,-0.007 0.18143,0.12005 0.13099,0.16653 0.23691,0.22004 0.381,0.1925 0.10977,-0.021 0.19957,-0.005 0.19957,0.0348 0,0.13679 -0.48133,0.0734 -0.62187,-0.0819 z m -2.90161,-0.72922 c -0.0257,-0.0671 -0.029,-0.19095 -0.007,-0.27516 0.0267,-0.10323 0.0429,-0.0796 0.0495,0.0727 0.005,0.12418 0.0574,0.245 0.11565,0.26848 0.0829,0.0334 0.0823,0.0442 -0.003,0.0494 -0.0597,0.004 -0.12956,-0.0482 -0.15533,-0.11537 z m 1.04698,0.0306 c -0.0892,-0.052 -0.14359,-0.17721 -0.13663,-0.31493 0.0101,-0.19846 0.0164,-0.20359 0.0481,-0.0389 0.0201,0.10437 0.11867,0.24724 0.21897,0.3175 0.20349,0.14253 0.10091,0.17106 -0.13047,0.0363 z m 1.0541,-0.0948 c -0.0559,-0.0559 -0.10104,-0.1797 -0.10035,-0.27517 0,-0.15689 0.0114,-0.15359 0.10652,0.0344 0.0579,0.1144 0.20021,0.23443 0.31626,0.26672 l 0.21097,0.0587 -0.2159,0.008 c -0.11874,0.005 -0.26162,-0.0373 -0.3175,-0.0932 z m 1.31657,0.0102 c -0.15759,-0.0918 -0.20074,-0.37407 -0.0696,-0.45514 0.0432,-0.0267 0.0909,0.0377 0.10584,0.14316 0.0314,0.22097 0.34663,0.30596 0.53988,0.14556 0.0823,-0.0683 0.12234,-0.0714 0.12234,-0.009 0,0.21397 -0.44201,0.32528 -0.6985,0.1759 z m 1.03717,-0.67055 c -0.1623,-0.1623 -0.22448,-0.33867 -0.11941,-0.33867 0.0275,0 0.12023,0.0857 0.20616,0.1905 0.13462,0.16416 0.18024,0.17587 0.32991,0.0847 0.26488,-0.16138 0.32785,-0.12089 0.10314,0.0663 -0.24982,0.20811 -0.30919,0.20779 -0.5198,-0.003 z m -4.318,-0.254 c -0.18754,-0.18754 -0.19312,-0.22124 -0.077,-0.46567 0.0729,-0.15338 0.0768,-0.15052 0.0419,0.0303 -0.0268,0.13866 0.0282,0.26153 0.17994,0.40216 0.12018,0.11138 0.17484,0.2025 0.12147,0.2025 -0.0534,0 -0.17322,-0.0762 -0.26635,-0.16933 z m 0.70998,-0.21457 c -0.10914,-0.16655 -0.12033,-0.25656 -0.05,-0.40217 0.0876,-0.18141 0.0908,-0.17973 0.0963,0.0508 0.003,0.13112 0.0452,0.3121 0.0934,0.40217 0.12735,0.23795 0.0251,0.20079 -0.13967,-0.0508 z m 2.05481,0.0597 c -0.16688,-0.18438 -0.18024,-0.3838 -0.0339,-0.50527 0.0814,-0.0676 0.10616,-0.0255 0.10584,0.18014 0,0.25552 0.0148,0.26784 0.31797,0.25857 0.26001,-0.008 0.30081,0.0114 0.22247,0.10583 -0.13555,0.16334 -0.4471,0.14336 -0.61238,-0.0393 z m -0.96986,-0.0314 c -0.20886,-0.20885 -0.007,-0.74507 0.28086,-0.74507 0.0401,0 -0.0106,0.0777 -0.1125,0.17264 -0.27467,0.25589 -0.23924,0.48428 0.0899,0.57931 0.24884,0.0719 0.25451,0.0802 0.0593,0.0871 -0.11874,0.004 -0.26162,-0.0381 -0.3175,-0.094 z m 3.6775,-0.41254 c -0.2575,-0.19612 -0.30927,-0.60794 -0.1251,-0.72177 0.0681,-0.0421 0.0824,-7.9e-4 0.0467,0.13569 -0.15025,0.57466 0.73462,0.90232 0.91364,0.33831 0.0296,-0.0932 0.0903,-0.16942 0.13491,-0.16942 0.0446,0 0.0243,0.10968 -0.0449,0.24374 -0.20325,0.393 -0.55645,0.45431 -0.92522,0.17345 z m -1.47426,-0.21032 c -0.18889,-0.13231 -0.2748,-0.63021 -0.10874,-0.63021 0.0437,0 0.0723,0.0994 0.0635,0.22092 -0.0238,0.33021 0.21767,0.45179 0.53601,0.26985 0.13883,-0.0793 0.25239,-0.11006 0.25239,-0.0683 0,0.0915 -0.3402,0.33952 -0.46567,0.33952 -0.0491,0 -0.17399,-0.0593 -0.27749,-0.13179 z m -1.57205,-0.44637 c -0.15425,-0.17044 -0.17912,-0.41446 -0.0613,-0.6007 0.0529,-0.0836 0.072,-0.0316 0.0622,0.16933 -0.0156,0.32027 0.25104,0.44912 0.50065,0.24197 0.20748,-0.17222 0.22995,-0.0243 0.0251,0.16638 -0.23426,0.21826 -0.34573,0.22313 -0.52684,0.023 z m -1.24246,-0.22818 c -0.083,-0.10004 -0.0849,-0.17136 -0.008,-0.3175 l 0.0989,-0.18849 -0.0368,0.19114 c -0.0246,0.12771 0.023,0.23306 0.14361,0.3175 0.13867,0.0971 0.14907,0.12636 0.045,0.12636 -0.0745,0 -0.18364,-0.0581 -0.24254,-0.12901 z m 3.81167,-0.234 c -0.23834,-0.11993 -0.32927,-0.54542 -0.17087,-0.79933 0.0759,-0.12172 0.0838,-0.0991 0.0419,0.12021 -0.11197,0.58578 0.30464,0.80662 0.73816,0.39129 0.292,-0.27974 0.31668,-0.1367 0.0299,0.17281 -0.23249,0.25086 -0.33311,0.26897 -0.63905,0.11502 z m -1.63788,-0.29982 c -0.16211,-0.17913 -0.1846,-0.48503 -0.0421,-0.57308 0.0683,-0.0422 0.0822,-1.7e-4 0.0459,0.13877 -0.0981,0.37531 0.24773,0.55139 0.54848,0.27922 0.21937,-0.19854 0.27247,-0.0966 0.0655,0.12558 -0.20963,0.22501 -0.43119,0.23559 -0.6177,0.0295 z"
         id="path6575"
         sodipodi:nodetypes="sssssssssssscsccsssscssssssssssssssssssscsssssssssssscssssccssssssssssssssssssssssssssssscsscssssssssssssssssssssssssssssscsssssssssssssscsssssssscssssccsscsssssssssssssssss"
         clip-path="url(#clipPath16441)" />
      <path
         style="fill:#020102;stroke-width:0.0846667"
         d="m 92.57691,117.93428 c -0.10996,-0.27225 -1.36845,-14.74823 -1.3729,-15.79207 -0.005,-1.01903 0.0313,-1.08376 0.62976,-1.14394 0.24347,-0.0245 0.7475,-0.0845 1.12004,-0.13326 0.65645,-0.086 0.85039,-0.10685 2.12042,-0.22785 1.77615,-0.16922 3.38119,0.6345 4.08091,2.04351 1.0759,2.16651 0.75337,6.19974 -0.60952,7.62213 l -0.37521,0.39158 1.30754,2.23838 c 0.71914,1.23111 1.30752,2.28573 1.30752,2.3436 0,0.0579 0.0441,0.14933 0.098,0.20324 0.11589,0.11588 -0.0435,0.35918 -0.23537,0.35918 -0.14936,0 -0.14671,0.0431 0.0225,0.36794 0.30218,0.58023 0.30253,0.58146 0.18582,0.69632 -0.0658,0.0648 -0.70747,0.18883 -1.53295,0.29631 l -1.41972,0.18483 -0.19915,-0.21489 c -0.10954,-0.1182 -0.64924,-0.92247 -1.19933,-1.78729 -0.55007,-0.8648 -1.01622,-1.55632 -1.03585,-1.53669 -0.0196,0.0196 0.005,0.48572 0.0543,1.03575 0.25765,2.86475 0.27847,2.81723 -1.34218,3.06177 -1.50302,0.22678 -1.50953,0.22675 -1.60457,-0.009 z m 1.49603,-1.59046 c 0.59071,-0.0948 1.08998,-0.18826 1.10948,-0.20776 0.0196,-0.0195 -0.0605,-1.07545 -0.17788,-2.34654 -0.30533,-3.30763 -0.35748,-3.29945 1.58282,-0.2482 0.72149,1.13458 1.32365,2.0984 1.33813,2.14182 0.0265,0.0796 2.22178,-0.15568 2.40284,-0.25758 0.0576,-0.0324 -0.43842,-0.95703 -1.29998,-2.42311 -1.92604,-3.27747 -2.17556,-3.8088 -1.63052,-3.47194 0.35724,0.22078 1.54064,-1.29586 1.83319,-2.3494 0.80174,-2.88726 -0.49035,-5.7255 -2.80027,-6.1511 -0.74991,-0.13817 -4.52927,0.23331 -4.78494,0.47032 -0.0209,0.0194 0.25691,3.37728 0.61733,7.46201 0.36044,4.08473 0.65376,7.45535 0.65183,7.49028 -0.005,0.0825 -0.0773,0.0894 1.15797,-0.1088 z m 0.56457,-8.13934 c -0.1106,-0.17691 -0.45821,-4.32606 -0.37121,-4.43087 0.12501,-0.15066 1.3372,-0.006 1.8089,0.21543 1.24624,0.58581 1.38644,2.60274 0.24657,3.54711 -0.58928,0.4882 -1.55686,0.87214 -1.68426,0.66833 z m 0.9833,-0.58176 c 1.49479,-0.76167 1.28452,-2.0921 -0.37172,-2.35182 -0.56224,-0.0882 -0.52747,-0.22577 -0.37589,1.48848 0.11105,1.25604 0.07,1.20863 0.74761,0.86334 z m 6.096,9.10506 c -0.058,-0.0698 -0.077,-0.127 -0.0423,-0.127 0.0347,0 0.0164,-0.0561 -0.0404,-0.12463 -0.26107,-0.31459 -1.53607,-16.28269 -1.32292,-16.568373 0.16177,-0.2168 2.59527,-0.51173 2.76852,-0.33553 0.29514,0.30016 1.62348,16.664403 1.36983,16.874933 -0.0763,0.0633 -2.0583,0.37476 -2.57419,0.40454 -0.0292,0.002 -0.10056,-0.0541 -0.15853,-0.12394 z m 1.61112,-1.67671 0.8068,-0.10129 -0.66633,-7.493 c -0.3665,-4.12115 -0.6817,-7.508653 -0.70048,-7.527793 -0.03,-0.0306 -2.08772,0.235033 -2.12011,0.273693 -0.009,0.011 1.30088,14.91508 1.32003,15.01695 0.003,0.009 0.12679,-0.003 0.27813,-0.0257 0.15134,-0.0229 0.63823,-0.0871 1.08196,-0.14284 z m 2.06166,1.11119 c -0.1021,-0.16331 -0.27665,-2.40436 -0.27905,-3.58314 l -0.003,-1.016 1.38629,-4.02167 c 0.76247,-2.21192 1.37432,-4.03417 1.35966,-4.04945 -0.0145,-0.0153 -0.79634,0.0592 -1.73709,0.1655 -2.05394,0.23208 -1.87611,0.33864 -2.02735,-1.21472 -0.28731,-2.950773 -0.23865,-3.194103 0.64823,-3.240763 0.31732,-0.0167 0.86268,-0.0723 1.21193,-0.12361 1.58599,-0.23295 5.25901,-0.5595 5.32714,-0.47361 0.0905,0.11405 0.26226,2.455343 0.26147,3.563613 v 0.84996 l -1.39896,4.13636 c -0.76944,2.275 -1.38637,4.14896 -1.37097,4.16436 0.0154,0.0154 0.78783,-0.0795 1.71646,-0.21092 2.16429,-0.30626 2.15413,-0.32118 2.15413,3.1677 0,1.20697 0.38045,1.04049 -3.47133,1.51899 -1.69968,0.21115 -3.22929,0.40535 -3.39916,0.43156 -0.20783,0.0321 -0.33165,0.0111 -0.37872,-0.0642 z m 6.81197,-2.39801 c 0.044,-0.044 -0.14,-2.34092 -0.19162,-2.39255 -0.0419,-0.0419 -3.78592,0.46522 -3.97756,0.53877 -0.38515,0.14779 -0.27037,-0.276 1.41246,-5.21569 l 1.68738,-4.953 -0.0965,-1.35071 c -0.0531,-0.742903 -0.11115,-1.365403 -0.12912,-1.383343 -0.0401,-0.0401 -6.46729,0.61776 -6.51446,0.66684 -0.035,0.0364 0.20047,2.471173 0.24331,2.515573 0.0132,0.0138 0.86392,-0.072 1.89029,-0.1905 2.18265,-0.25208 2.20924,-0.25316 2.27105,-0.0921 0.0259,0.0679 -0.70459,2.30625 -1.62359,4.97417 l -1.67098,4.85075 0.10726,1.44514 0.10727,1.44514 3.22471,-0.41155 c 1.77358,-0.22635 3.24062,-0.42747 3.26007,-0.44693 z m 1.20464,1.35943 c -0.16481,-0.20302 -0.39367,-3.95422 -0.25339,-4.15323 0.0821,-0.11642 3.3836,-8.28043 3.35849,-8.30487 -0.0111,-0.0108 -0.90345,0.0599 -1.983,0.15719 -2.40964,0.21705 -2.19244,0.33884 -2.27325,-1.27468 -0.15771,-3.148983 -0.14205,-3.253853 0.48181,-3.227773 0.34139,0.0143 1.07209,-0.0543 2.86528,-0.26882 1.04275,-0.12476 1.27344,-0.14279 2.54,-0.19845 0.62865,-0.0276 1.24703,-0.0677 1.37417,-0.0891 0.37473,-0.0631 0.56205,1.07338 0.60687,3.681543 l 0.0154,0.889 -1.62772,4.04283 c -0.89522,2.22356 -1.61285,4.04284 -1.5947,4.04284 0.20111,0 3.80132,-0.4351 3.85019,-0.46532 0.21003,-0.12979 0.39005,1.42539 0.41823,3.61298 0.0119,0.92408 0.40553,0.79308 -3.66699,1.22039 -1.91492,0.20091 -3.60701,0.37867 -3.76023,0.39502 -0.15322,0.0164 -0.31118,-0.0104 -0.35103,-0.0595 z m 4.25516,-1.9621 3.11754,-0.32349 -0.0514,-0.72215 c -0.0283,-0.39719 -0.0729,-0.94223 -0.0993,-1.21122 l -0.0479,-0.48906 -0.2666,0.0435 c -1.52384,0.24876 -4.235,0.47382 -4.34789,0.36092 -0.10877,-0.10878 0.11377,-0.71429 1.82192,-4.95674 l 1.94582,-4.83282 -0.12681,-1.422383 c -0.0697,-0.78231 -0.13526,-1.43143 -0.14558,-1.44251 -0.0284,-0.0304 -6.82889,0.54746 -6.85408,0.58244 -0.0316,0.0439 0.12089,2.560773 0.15735,2.597243 0.0169,0.0168 1.07074,-0.0651 2.34206,-0.18194 2.38429,-0.21921 2.44295,-0.21925 2.44295,-0.002 0,0.13101 -3.86029,9.73674 -3.97592,9.89341 -0.0344,0.0466 -0.0138,0.57997 0.0461,1.18534 0.0597,0.60536 0.11107,1.1536 0.11419,1.21829 0.004,0.0899 0.1006,0.10685 0.40783,0.072 0.22119,-0.0251 1.80507,-0.19123 3.51972,-0.36914 z m 4.45059,1.01474 c -0.35865,-0.43215 0.85804,-16.490753 1.26524,-16.699313 0.25063,-0.12837 2.9465,-0.19351 3.04112,-0.0735 0.10578,0.13416 3.91583,14.145833 3.91583,14.400653 0,0.10491 -0.0428,0.23357 -0.0952,0.28592 -0.0705,0.0705 -0.0705,0.16609 0,0.36824 0.30308,0.86943 0.0249,1.135 -1.31514,1.25572 -1.7839,0.1607 -1.6325,0.27465 -2.04679,-1.54068 -0.29625,-1.29819 -0.20587,-1.19427 -0.97589,-1.12211 -0.74356,0.0697 -0.68932,-0.0465 -0.78134,1.67312 -0.0719,1.34318 -0.0529,1.32128 -1.23338,1.42456 -0.48178,0.0421 -1.05175,0.0973 -1.26661,0.12262 -0.30129,0.0355 -0.41746,0.0137 -0.50787,-0.0952 z m 1.42528,-1.59943 c 1.18642,-0.0769 1.08641,0.0466 1.19002,-1.46982 0.11126,-1.62811 0.0813,-1.58804 1.24841,-1.66706 1.04362,-0.0707 0.95805,-0.16489 1.3126,1.44577 0.15377,0.6985 0.28945,1.28295 0.30157,1.29878 0.037,0.0484 2.27489,-0.17106 2.33312,-0.22878 0.03,-0.0297 -0.8124,-3.23535 -1.87195,-7.12366 l -1.92641,-7.069673 -1.25865,0.0261 c -0.69228,0.0144 -1.26441,0.0334 -1.27145,0.0423 -0.14391,0.18186 -1.24026,14.901453 -1.10607,14.849963 0.0621,-0.0238 0.53409,-0.0707 1.04881,-0.104 z m 1.59597,-5.30648 c -0.0931,-0.13292 -0.11816,-0.30894 -0.0874,-0.61383 0.0238,-0.23511 0.0546,-1.18946 0.0686,-2.1208 0.0175,-1.15776 0.0593,-1.7562 0.13234,-1.8921 l 0.10689,-0.19877 0.12436,0.17755 c 0.0684,0.0976 0.19642,0.58714 0.28453,1.08777 0.0881,0.50062 0.19957,1.04087 0.24768,1.20054 0.21447,0.71167 0.43108,2.2151 0.34292,2.37986 -0.13721,0.2564 -1.03661,0.2415 -1.21991,-0.0202 z m 0.71099,-0.46979 c -0.0381,-0.17463 -0.11369,-0.5936 -0.16799,-0.93106 -0.13028,-0.81002 -0.22862,-0.84003 -0.28001,-0.0855 -0.0866,1.27248 -0.0742,1.33401 0.26961,1.33401 0.24207,0 0.24609,-0.007 0.17839,-0.3175 z m 5.34598,6.55177 c -0.0617,-0.0744 -0.31771,-2.8385 -0.68723,-7.42026 -0.3239,-4.01596 -0.58105,-8.213463 -0.75133,-8.680373 2.04517,-0.0734 3.85421,-0.52471 5.7472,-0.16571 2.32941,0.52574 3.09451,1.77467 3.08557,5.036733 -0.006,2.34649 -0.2077,3.07207 -1.13311,4.08461 l -0.42733,0.46756 1.32033,2.23116 c 1.38118,2.33401 1.53746,2.69798 1.22941,2.86286 l -0.17799,0.0953 0.16823,0.31386 c 0.3978,0.74221 0.26609,0.82666 -1.40155,0.89868 l -1.27344,0.055 -0.26157,-0.27633 c -0.14388,-0.15198 -0.74618,-1.00022 -1.33842,-1.88499 l -1.07683,-1.60867 0.0542,0.508 c 0.33369,3.12788 0.24627,3.3982 -1.12046,3.46473 -0.59182,0.0288 -1.25182,0.0713 -1.46669,0.0944 -0.27355,0.0294 -0.42011,0.006 -0.48898,-0.0765 z m 2.76823,-1.70231 c 0.022,-0.022 -0.0637,-1.05567 -0.1906,-2.29698 -0.33288,-3.25709 -0.4132,-3.25497 1.7268,-0.0455 l 1.47746,2.21581 1.14721,-0.0553 c 0.63097,-0.0304 1.15755,-0.0636 1.17022,-0.0737 0.0127,-0.0101 -0.70173,-1.24427 -1.5875,-2.74254 -1.84362,-3.11841 -1.75683,-2.86206 -1.12368,-3.31938 1.39988,-1.01111 2.11388,-3.28853 1.59025,-5.07237 -0.0752,-0.25612 -0.16719,-0.580563 -0.2045,-0.720983 -0.3896,-1.46704 -1.69278,-2.22771 -3.88554,-2.268 -0.74229,-0.0136 -3.65363,0.16067 -3.71541,0.22246 -0.0146,0.0146 1.1349,14.323023 1.1507,14.323793 0.21654,0.0106 2.41731,-0.14003 2.44459,-0.16731 z m -0.56983,-7.82194 c -0.11168,-0.20871 -0.46548,-3.52212 -0.39555,-3.70441 0.0688,-0.179393 1.44036,-0.1213 1.91312,0.081 1.51815,0.64972 1.17483,2.97163 -0.53234,3.60026 -0.60286,0.22198 -0.87538,0.22837 -0.98523,0.0231 z m 0.84495,-0.31002 c 1.68312,-0.59384 1.41565,-1.988 -0.3814,-1.988 h -0.34978 l 0.10509,0.9525 c 0.0578,0.52387 0.10697,1.00012 0.10925,1.05833 0.005,0.13636 0.0743,0.13331 0.51684,-0.0228 z m 6.20096,9.33032 c -0.0931,-0.14902 -0.0708,0.0931 -0.6929,-7.54406 -0.3189,-3.91523 -0.57533,-7.461503 -0.5698,-7.880603 l 0.0101,-0.762 0.5819,-0.0253 c 6.12989,-0.26623 8.21992,1.43167 8.78168,7.134113 0.52557,5.33504 -1.06333,8.38051 -4.64264,8.89854 -0.22162,0.0321 -0.44104,0.0865 -0.4876,0.12099 -0.15587,0.1154 -2.91137,0.16927 -2.98067,0.0583 z m 2.72666,-1.62218 c 3.79706,-0.21026 5.55347,-2.99528 5.00242,-7.93195 -0.42209,-3.781173 -1.79125,-5.656183 -4.49918,-6.161453 -0.42381,-0.0791 -3.99582,-0.13939 -4.06654,-0.0687 -0.0127,0.0128 0.24034,3.204153 0.56263,7.091803 0.32229,3.88766 0.58637,7.09544 0.58682,7.12842 0,0.0551 0.65067,0.0395 2.41385,-0.0582 z m -0.3243,-2.56091 c -0.0727,-0.11759 -0.83164,-8.3764 -0.80224,-8.729603 l 0.0259,-0.31063 0.59036,-0.0255 c 3.19027,-0.13761 4.27583,7.558483 1.2492,8.856233 -0.49434,0.21196 -1.00009,0.31161 -1.0632,0.20948 z m 1.24423,-0.67966 c 1.59824,-1.1076 1.47428,-5.34713 -0.19233,-6.57672 -0.32112,-0.23692 -1.16551,-0.44846 -1.29063,-0.32334 -0.0682,0.0682 0.42047,6.02122 0.57068,6.95212 0.056,0.34745 0.36089,0.33005 0.91228,-0.0521 z"
         id="path6650"
         sodipodi:nodetypes="scssssscssssssscssscsssssssssssssssssssssssssssscsssssscssscsssccsssssssccsssssssssssscssssscscccsssssssssssscssssssssccsscssscssssssscssscsssssssssssssssssssscssssssssscsssssssssssssccsscsscsscsscssssssscssssscsssssssssssscssssssscssssssssssscssscsssssssss"
         clip-path="url(#clipPath16435)" />
    </g>
    <g
       id="g7396"
       transform="translate(0.54764185,-1.6582088)">
      <g
         id="g13711"
         transform="matrix(0.63590827,0,0,0.63590827,56.002001,135.8196)">
        <rect
           style="fill:#000000;fill-opacity:1;stroke:#000000;stroke-width:0.762;stroke-linecap:square;stroke-linejoin:round;stroke-opacity:1;paint-order:markers stroke fill"
           id="rect1207"
           width="60.636036"
           height="60.636036"
           x="1.21562"
           y="22.191696" />
        <path
           sodipodi:type="star"
           style="fill:#616161;fill-opacity:1;stroke:#000000;stroke-width:2.88;stroke-linecap:square;stroke-linejoin:round;stroke-opacity:1;paint-order:markers stroke fill"
           id="path902"
           inkscape:flatsided="false"
           sodipodi:sides="8"
           sodipodi:cx="132.84444"
           sodipodi:cy="178.15445"
           sodipodi:r1="43.139202"
           sodipodi:r2="40.982243"
           sodipodi:arg1="0.52359878"
           sodipodi:arg2="0.91629786"
           inkscape:rounded="0.07"
           inkscape:randomized="0"
           transform="matrix(0.05028703,0.35305958,-0.35305958,0.05028703,87.752421,-3.351145)"
           d="m 170.20408,199.72405 c -0.57915,1.00311 -11.4923,10.23867 -12.41123,10.9438 -0.91894,0.70512 -12.66434,8.85608 -13.78317,9.15587 -1.11882,0.29979 -15.36611,-0.88645 -16.5145,-1.03764 -1.14839,-0.15118 -15.21723,-2.69284 -16.22034,-3.27199 -1.00312,-0.57914 -10.23868,-11.49229 -10.9438,-12.41123 -0.705128,-0.91894 -8.856084,-12.66434 -9.155873,-13.78316 -0.299789,-1.11883 0.886448,-15.36612 1.037636,-16.51451 0.151188,-1.14838 2.692841,-15.21723 3.271989,-16.22034 0.579147,-1.00311 11.492298,-10.23867 12.411238,-10.9438 0.91894,-0.70512 12.66433,-8.85608 13.78316,-9.15587 1.11883,-0.29979 15.36612,0.88645 16.5145,1.03764 1.14839,0.15118 15.21724,2.69284 16.22035,3.27198 1.00311,0.57915 10.23867,11.4923 10.9438,12.41124 0.70512,0.91894 8.85608,12.66434 9.15587,13.78316 0.29978,1.11883 -0.88645,15.36612 -1.03764,16.51451 -0.15119,1.14838 -2.69284,15.21723 -3.27199,16.22034 z" />
        <path
           sodipodi:type="star"
           style="fill:#414141;fill-opacity:1;stroke:#000000;stroke-width:2.88;stroke-linecap:square;stroke-linejoin:round;stroke-opacity:1;paint-order:markers stroke fill"
           id="path1291"
           inkscape:flatsided="false"
           sodipodi:sides="8"
           sodipodi:cx="132.84444"
           sodipodi:cy="178.15445"
           sodipodi:r1="43.139202"
           sodipodi:r2="40.982243"
           sodipodi:arg1="0.52359878"
           sodipodi:arg2="0.91629786"
           inkscape:rounded="0.07"
           inkscape:randomized="0"
           transform="matrix(0.03724916,0.26152216,-0.26152216,0.03724916,73.176631,11.131847)"
           d="m 170.20408,199.72405 c -0.57915,1.00311 -11.4923,10.23867 -12.41123,10.9438 -0.91894,0.70512 -12.66434,8.85608 -13.78317,9.15587 -1.11882,0.29979 -15.36611,-0.88645 -16.5145,-1.03764 -1.14839,-0.15118 -15.21723,-2.69284 -16.22034,-3.27199 -1.00312,-0.57914 -10.23868,-11.49229 -10.9438,-12.41123 -0.705128,-0.91894 -8.856084,-12.66434 -9.155873,-13.78316 -0.299789,-1.11883 0.886448,-15.36612 1.037636,-16.51451 0.151188,-1.14838 2.692841,-15.21723 3.271989,-16.22034 0.579147,-1.00311 11.492298,-10.23867 12.411238,-10.9438 0.91894,-0.70512 12.66433,-8.85608 13.78316,-9.15587 1.11883,-0.29979 15.36612,0.88645 16.5145,1.03764 1.14839,0.15118 15.21724,2.69284 16.22035,3.27198 1.00311,0.57915 10.23867,11.4923 10.9438,12.41124 0.70512,0.91894 8.85608,12.66434 9.15587,13.78316 0.29978,1.11883 -0.88645,15.36612 -1.03764,16.51451 -0.15119,1.14838 -2.69284,15.21723 -3.27199,16.22034 z" />
        <path
           sodipodi:type="star"
           style="fill:#000000;fill-opacity:1;stroke:#000000;stroke-width:2.88;stroke-linecap:square;stroke-linejoin:round;stroke-opacity:1;paint-order:markers stroke fill"
           id="path1289"
           inkscape:flatsided="false"
           sodipodi:sides="8"
           sodipodi:cx="132.84444"
           sodipodi:cy="178.15445"
           sodipodi:r1="43.139202"
           sodipodi:r2="40.982243"
           sodipodi:arg1="0.52359878"
           sodipodi:arg2="0.91629786"
           inkscape:rounded="0.07"
           inkscape:randomized="0"
           transform="matrix(0.02255858,0.15838123,-0.15838123,0.02255858,56.753177,27.450737)"
           d="m 170.20408,199.72405 c -0.57915,1.00311 -11.4923,10.23867 -12.41123,10.9438 -0.91894,0.70512 -12.66434,8.85608 -13.78317,9.15587 -1.11882,0.29979 -15.36611,-0.88645 -16.5145,-1.03764 -1.14839,-0.15118 -15.21723,-2.69284 -16.22034,-3.27199 -1.00312,-0.57914 -10.23868,-11.49229 -10.9438,-12.41123 -0.705128,-0.91894 -8.856084,-12.66434 -9.155873,-13.78316 -0.299789,-1.11883 0.886448,-15.36612 1.037636,-16.51451 0.151188,-1.14838 2.692841,-15.21723 3.271989,-16.22034 0.579147,-1.00311 11.492298,-10.23867 12.411238,-10.9438 0.91894,-0.70512 12.66433,-8.85608 13.78316,-9.15587 1.11883,-0.29979 15.36612,0.88645 16.5145,1.03764 1.14839,0.15118 15.21724,2.69284 16.22035,3.27198 1.00311,0.57915 10.23867,11.4923 10.9438,12.41124 0.70512,0.91894 8.85608,12.66434 9.15587,13.78316 0.29978,1.11883 -0.88645,15.36612 -1.03764,16.51451 -0.15119,1.14838 -2.69284,15.21723 -3.27199,16.22034 z" />
        <circle
           style="fill:#ff0000;fill-opacity:1;stroke:#000000;stroke-width:0.762;stroke-linecap:square;stroke-linejoin:round;stroke-opacity:1;paint-order:markers stroke fill"
           id="path1315"
           cx="10.245293"
           cy="30.534199"
           r="6.4536057" />
      </g>
      <path
         style="fill:none;fill-rule:evenodd;stroke:#000000;stroke-width:0.394757;stroke-linecap:butt;stroke-linejoin:miter;stroke-miterlimit:4;stroke-dasharray:none;stroke-opacity:1;marker-start:url(#Arrow1Lstart);marker-end:url(#marker3096)"
         d="m 108.02385,148.51151 v 17.93696"
         id="path2816"
         sodipodi:nodetypes="cc" />
      <path
         style="fill:none;fill-rule:evenodd;stroke:#000000;stroke-width:0.394757;stroke-linecap:butt;stroke-linejoin:miter;stroke-miterlimit:4;stroke-dasharray:none;stroke-opacity:1;marker-start:url(#Arrow1Lstart);marker-end:url(#marker3096)"
         d="M 116.99233,183.84757 H 99.055358"
         id="path3586"
         sodipodi:nodetypes="cc" />
      <circle
         style="fill:#ff0000;fill-opacity:1;stroke:#000000;stroke-width:0.677533;stroke-linecap:square;stroke-linejoin:round;stroke-opacity:1;paint-order:markers stroke fill"
         id="circle3588"
         cx="108.02384"
         cy="206.5573"
         r="5.7382278" />
      <text
         xml:space="preserve"
         style="font-size:5.64611px;line-height:100%;font-family:'Noto Sans';-inkscape-font-specification:'Noto Sans';text-decoration:none;text-decoration-line:none;text-decoration-color:#000000;letter-spacing:0px;word-spacing:0px;fill:#000000;stroke:#000000;stroke-width:0.235254px;stroke-linecap:butt;stroke-linejoin:miter;stroke-opacity:1;stop-color:#000000"
         x="124.65305"
         y="159.46178"
         id="text6782"><tspan
           sodipodi:role="line"
           id="tspan6780"
           style="font-style:normal;font-variant:normal;font-weight:normal;font-stretch:normal;font-size:5.64611px;font-family:C059;-inkscape-font-specification:C059;stroke-width:0.235254px"
           x="124.65305"
           y="159.46178">Select a Move</tspan></text>
      <text
         xml:space="preserve"
         style="font-size:5.64611px;line-height:100%;font-family:'Noto Sans';-inkscape-font-specification:'Noto Sans';text-decoration:none;text-decoration-line:none;text-decoration-color:#000000;letter-spacing:0px;word-spacing:0px;fill:#000000;stroke:#000000;stroke-width:0.235254px;stroke-linecap:butt;stroke-linejoin:miter;stroke-opacity:1;stop-color:#000000"
         x="124.7829"
         y="182.351"
         id="text10480"><tspan
           sodipodi:role="line"
           id="tspan10478"
           style="font-style:normal;font-variant:normal;font-weight:normal;font-stretch:normal;font-size:5.64611px;font-family:C059;-inkscape-font-specification:C059;stroke-width:0.235254px"
           x="124.7829"
           y="182.351">Select a Monster</tspan><tspan
           sodipodi:role="line"
           style="font-style:normal;font-variant:normal;font-weight:normal;font-stretch:normal;font-size:5.64611px;font-family:C059;-inkscape-font-specification:C059;stroke-width:0.235254px"
           x="124.7829"
           y="188.26741"
           id="tspan11028">to target</tspan></text>
      <text
         xml:space="preserve"
         style="font-size:5.64611px;line-height:100%;font-family:'Noto Sans';-inkscape-font-specification:'Noto Sans';text-decoration:none;text-decoration-line:none;text-decoration-color:#000000;letter-spacing:0px;word-spacing:0px;fill:#000000;stroke:#000000;stroke-width:0.235254px;stroke-linecap:butt;stroke-linejoin:miter;stroke-opacity:1;stop-color:#000000"
         x="124.70386"
         y="208.53908"
         id="text12528"><tspan
           sodipodi:role="line"
           id="tspan12526"
           style="font-style:normal;font-variant:normal;font-weight:normal;font-stretch:normal;font-size:5.64611px;font-family:C059;-inkscape-font-specification:C059;stroke-width:0.235254px"
           x="124.70386"
           y="208.53908">Use selected Move</tspan></text>
      <rect
         style="fill:url(#linearGradient2359);fill-opacity:1;stroke:#000000;stroke-width:0.438;stroke-linecap:square;stroke-linejoin:round;stroke-miterlimit:4;stroke-dasharray:none;stroke-opacity:1;paint-order:fill markers stroke"
         id="rect13735"
         width="4.3517456"
         height="16.3724"
         x="75.151344"
         y="212.17085"
         rx="1.6169586"
         ry="1.3562845" />
      <circle
         style="fill:none;fill-opacity:1;stroke:#000000;stroke-width:0.394757;stroke-linecap:square;stroke-linejoin:round;stroke-miterlimit:4;stroke-dasharray:none;stroke-opacity:1;paint-order:markers stroke fill"
         id="path13963"
         cx="77.327217"
         cy="215.71332"
         r="1.9556499" />
      <path
         style="fill:none;fill-opacity:1;stroke:#000000;stroke-width:0.443971;stroke-linecap:square;stroke-linejoin:round;stroke-miterlimit:4;stroke-dasharray:none;stroke-opacity:1;paint-order:markers stroke fill"
         id="circle14045"
         sodipodi:type="arc"
         sodipodi:cx="77.327217"
         sodipodi:cy="220.82401"
         sodipodi:rx="2.1551123"
         sodipodi:ry="2.1834092"
         sodipodi:start="0"
         sodipodi:end="3.1415927"
         sodipodi:arc-type="arc"
         sodipodi:open="true"
         d="m 79.482329,220.82401 a 2.1551123,2.1834092 0 0 1 -1.077556,1.89088 2.1551123,2.1834092 0 0 1 -2.155112,0 2.1551123,2.1834092 0 0 1 -1.077556,-1.89088" />
      <text
         xml:space="preserve"
         style="font-size:5.64611px;line-height:100%;font-family:'Noto Sans';-inkscape-font-specification:'Noto Sans';text-decoration:none;text-decoration-line:none;text-decoration-color:#000000;letter-spacing:0px;word-spacing:0px;fill:#000000;stroke:#000000;stroke-width:0.235254px;stroke-linecap:butt;stroke-linejoin:miter;stroke-opacity:1;stop-color:#000000"
         x="62.83189"
         y="233.39955"
         id="text14709"><tspan
           sodipodi:role="line"
           id="tspan14707"
           style="font-style:normal;font-variant:normal;font-weight:normal;font-stretch:normal;font-size:5.64611px;font-family:C059;-inkscape-font-specification:C059;stroke-width:0.235254px"
           x="62.83189"
           y="233.39955">Game Select</tspan></text>
      <text
         xml:space="preserve"
         style="font-size:5.64611px;line-height:100%;font-family:'Noto Sans';-inkscape-font-specification:'Noto Sans';text-decoration:none;text-decoration-line:none;text-decoration-color:#000000;letter-spacing:0px;word-spacing:0px;fill:#000000;stroke:#000000;stroke-width:0.235254px;stroke-linecap:butt;stroke-linejoin:miter;stroke-opacity:1;stop-color:#000000"
         x="102.19598"
         y="224.21463"
         id="text15413"><tspan
           sodipodi:role="line"
           id="tspan15411"
           style="font-style:normal;font-variant:normal;font-weight:normal;font-stretch:normal;font-size:5.64611px;font-family:C059;-inkscape-font-specification:C059;stroke-width:0.235254px"
           x="102.19598"
           y="224.21463">Show your Grizzard's stats</tspan></text>
    </g>
    <text
       xml:space="preserve"
       transform="matrix(0.23525445,0,0,0.23525445,52.207883,145.38783)"
       id="text1009"
       style="font-size:17.3333px;line-height:100%;font-family:'Noto Sans';-inkscape-font-specification:'Noto Sans';text-decoration:none;text-decoration-line:none;text-decoration-color:#000000;letter-spacing:0px;word-spacing:0px;white-space:pre;shape-inside:url(#rect1011);fill:#000000;stroke:#000000;stroke-width:1px;stroke-linecap:butt;stroke-linejoin:miter;stroke-opacity:1;stop-color:#000000" />
    <text
       xml:space="preserve"
       style="font-size:5.64611px;line-height:100%;font-family:'Noto Sans';-inkscape-font-specification:'Noto Sans';text-decoration:none;text-decoration-line:none;text-decoration-color:#000000;letter-spacing:0px;word-spacing:0px;fill:#000000;stroke:#000000;stroke-width:0.235254px;stroke-linecap:butt;stroke-linejoin:miter;stroke-opacity:1;stop-color:#000000"
       x="92.935547"
       y="247.19017"
       id="text3079"><tspan
         sodipodi:role="line"
         id="tspan3077"
         style="font-style:normal;font-variant:normal;font-weight:normal;font-stretch:normal;font-size:5.64611px;font-family:C059;-inkscape-font-specification:C059;stroke-width:0.235254px"
         x="92.935547"
         y="247.19017">Combat Controls</tspan></text>
  </g>
</svg>
