<?xml version="1.0" encoding="UTF-8" standalone="no"?>
<!-- Created with Inkscape (http://www.inkscape.org/) -->

<svg
   width="6in"
   height="9in"
   viewBox="0 0 152.4 228.59999"
   version="1.1"
   id="svg5"
   inkscape:version="1.1 (c68e22c387, 2021-05-23)"
   sodipodi:docname="SyrexMap.svg"
   xmlns:inkscape="http://www.inkscape.org/namespaces/inkscape"
   xmlns:sodipodi="http://sodipodi.sourceforge.net/DTD/sodipodi-0.dtd"
   xmlns="http://www.w3.org/2000/svg"
   xmlns:svg="http://www.w3.org/2000/svg">
  <sodipodi:namedview
     id="namedview7"
     pagecolor="#ffffff"
     bordercolor="#ff00ec"
     borderopacity="1"
     inkscape:pageshadow="0"
     inkscape:pageopacity="0"
     inkscape:pagecheckerboard="false"
     inkscape:document-units="in"
     showgrid="false"
     units="in"
     width="6in"
     borderlayer="true"
     inkscape:zoom="0.94867184"
     inkscape:cx="140.72306"
     inkscape:cy="395.28948"
     inkscape:window-width="1920"
     inkscape:window-height="1011"
     inkscape:window-x="0"
     inkscape:window-y="32"
     inkscape:window-maximized="1"
     inkscape:current-layer="layer1" />
  <defs
     id="defs2" />
  <g
     inkscape:groupmode="layer"
     id="layer2"
     inkscape:label="Layer 2"
     sodipodi:insensitive="true">
    <rect
       style="fill:#ffccaa;fill-opacity:1;stroke-width:2.11667;stroke-linecap:square;stroke-linejoin:round;paint-order:markers stroke fill"
       id="rect31"
       width="158.14215"
       height="234.51334"
       x="-3.4509249"
       y="-1.27744" />
  </g>
  <g
     inkscape:label="Layer 1"
     inkscape:groupmode="layer"
     id="layer1">
    <text
       xml:space="preserve"
       style="font-size:20.9082px;line-height:100%;font-family:'Noto Sans';-inkscape-font-specification:'Noto Sans';text-decoration:none;text-decoration-line:none;text-decoration-color:#000000;letter-spacing:0px;word-spacing:0px;fill:#000000;stroke:#000000;stroke-width:0.435588px;stroke-linecap:butt;stroke-linejoin:miter;stroke-opacity:1;stop-color:#000000"
       x="93.70153"
       y="28.359221"
       id="text2500"><tspan
         sodipodi:role="line"
         id="tspan2498"
         style="font-style:normal;font-variant:normal;font-weight:normal;font-stretch:normal;font-size:20.9082px;font-family:Anaktoria;-inkscape-font-specification:Anaktoria;stroke-width:0.435588px"
         x="93.70153"
         y="28.359221">Syrex</tspan></text>
    <text
       xml:space="preserve"
       style="font-style:normal;font-variant:normal;font-weight:normal;font-stretch:normal;font-size:3.8055px;line-height:100%;font-family:Anaktoria;-inkscape-font-specification:Anaktoria;text-align:center;text-decoration:none;text-decoration-line:none;text-decoration-color:#000000;letter-spacing:0px;word-spacing:0px;text-anchor:middle;fill:#000000;stroke:#000000;stroke-width:0.158562px;stroke-linecap:butt;stroke-linejoin:miter;stroke-opacity:1;stop-color:#000000"
       x="53.410469"
       y="87.304146"
       id="text17405"><tspan
         sodipodi:role="line"
         id="tspan17403"
         style="font-style:normal;font-variant:normal;font-weight:normal;font-stretch:normal;font-size:3.8055px;font-family:Anaktoria;-inkscape-font-specification:Anaktoria;text-align:center;text-anchor:middle;stroke-width:0.158562px"
         x="53.410469"
         y="87.304146">Treble</tspan><tspan
         sodipodi:role="line"
         style="font-style:normal;font-variant:normal;font-weight:normal;font-stretch:normal;font-size:3.8055px;font-family:Anaktoria;-inkscape-font-specification:Anaktoria;text-align:center;text-anchor:middle;stroke-width:0.158562px"
         x="53.410469"
         y="91.109642"
         id="tspan17407">Village</tspan></text>
    <text
       xml:space="preserve"
       style="font-style:normal;font-variant:normal;font-weight:normal;font-stretch:normal;font-size:3.8055px;line-height:100%;font-family:Anaktoria;-inkscape-font-specification:Anaktoria;text-align:center;text-decoration:none;text-decoration-line:none;text-decoration-color:#000000;letter-spacing:0px;word-spacing:0px;text-anchor:middle;fill:#000000;stroke:#000000;stroke-width:0.158562px;stroke-linecap:butt;stroke-linejoin:miter;stroke-opacity:1;stop-color:#000000"
       x="78.780556"
       y="89.255959"
       id="text20705"><tspan
         sodipodi:role="line"
         style="font-style:normal;font-variant:normal;font-weight:normal;font-stretch:normal;font-size:3.8055px;font-family:Anaktoria;-inkscape-font-specification:Anaktoria;text-align:center;text-anchor:middle;stroke-width:0.158562px"
         x="78.780556"
         y="89.255959"
         id="tspan20703">Fire</tspan><tspan
         sodipodi:role="line"
         style="font-style:normal;font-variant:normal;font-weight:normal;font-stretch:normal;font-size:3.8055px;font-family:Anaktoria;-inkscape-font-specification:Anaktoria;text-align:center;text-anchor:middle;stroke-width:0.158562px"
         x="78.780556"
         y="93.061447"
         id="tspan21009">Bog</tspan></text>
    <text
       xml:space="preserve"
       style="font-style:normal;font-variant:normal;font-weight:normal;font-stretch:normal;font-size:3.8055px;line-height:100%;font-family:Anaktoria;-inkscape-font-specification:Anaktoria;text-align:center;text-decoration:none;text-decoration-line:none;text-decoration-color:#000000;letter-spacing:0px;word-spacing:0px;text-anchor:middle;fill:#000000;stroke:#000000;stroke-width:0.158562px;stroke-linecap:butt;stroke-linejoin:miter;stroke-opacity:1;stop-color:#000000"
       x="56.383549"
       y="120.96127"
       id="text28373"><tspan
         sodipodi:role="line"
         style="font-style:normal;font-variant:normal;font-weight:normal;font-stretch:normal;font-size:3.8055px;font-family:Anaktoria;-inkscape-font-specification:Anaktoria;text-align:center;text-anchor:middle;stroke-width:0.158562px"
         x="56.383549"
         y="120.96127"
         id="tspan28705">Western</tspan><tspan
         sodipodi:role="line"
         style="font-style:normal;font-variant:normal;font-weight:normal;font-stretch:normal;font-size:3.8055px;font-family:Anaktoria;-inkscape-font-specification:Anaktoria;text-align:center;text-anchor:middle;stroke-width:0.158562px"
         x="56.383549"
         y="124.76677"
         id="tspan30931">Road</tspan></text>
    <text
       xml:space="preserve"
       style="font-style:normal;font-variant:normal;font-weight:normal;font-stretch:normal;font-size:3.8055px;line-height:100%;font-family:Anaktoria;-inkscape-font-specification:Anaktoria;text-align:center;text-decoration:none;text-decoration-line:none;text-decoration-color:#000000;letter-spacing:0px;word-spacing:0px;text-anchor:middle;fill:#000000;stroke:#000000;stroke-width:0.158562px;stroke-linecap:butt;stroke-linejoin:miter;stroke-opacity:1;stop-color:#000000"
       x="38.465893"
       y="117.78034"
       id="text38937"><tspan
         sodipodi:role="line"
         style="font-style:normal;font-variant:normal;font-weight:normal;font-stretch:normal;font-size:3.8055px;font-family:Anaktoria;-inkscape-font-specification:Anaktoria;text-align:center;text-anchor:middle;stroke-width:0.158562px"
         x="38.465893"
         y="117.78034"
         id="tspan38935">Lost</tspan><tspan
         sodipodi:role="line"
         style="font-style:normal;font-variant:normal;font-weight:normal;font-stretch:normal;font-size:3.8055px;font-family:Anaktoria;-inkscape-font-specification:Anaktoria;text-align:center;text-anchor:middle;stroke-width:0.158562px"
         x="38.465893"
         y="121.58583"
         id="tspan39367">Mine</tspan></text>
    <text
       xml:space="preserve"
       style="font-style:normal;font-variant:normal;font-weight:normal;font-stretch:normal;font-size:3.8055px;line-height:100%;font-family:Anaktoria;-inkscape-font-specification:Anaktoria;text-align:center;text-decoration:none;text-decoration-line:none;text-decoration-color:#000000;letter-spacing:0px;word-spacing:0px;text-anchor:middle;fill:#000000;stroke:#000000;stroke-width:0.158562px;stroke-linecap:butt;stroke-linejoin:miter;stroke-opacity:1;stop-color:#000000"
       x="112.99274"
       y="107.90733"
       id="text39937"><tspan
         sodipodi:role="line"
         style="font-style:normal;font-variant:normal;font-weight:normal;font-stretch:normal;font-size:3.8055px;font-family:Anaktoria;-inkscape-font-specification:Anaktoria;text-align:center;text-anchor:middle;stroke-width:0.158562px"
         x="112.99274"
         y="107.90733"
         id="tspan39935">Spiral</tspan><tspan
         sodipodi:role="line"
         style="font-style:normal;font-variant:normal;font-weight:normal;font-stretch:normal;font-size:3.8055px;font-family:Anaktoria;-inkscape-font-specification:Anaktoria;text-align:center;text-anchor:middle;stroke-width:0.158562px"
         x="112.99274"
         y="111.71282"
         id="tspan40109">Woods</tspan></text>
    <text
       xml:space="preserve"
       style="font-style:normal;font-variant:normal;font-weight:normal;font-stretch:normal;font-size:3.8055px;line-height:100%;font-family:Anaktoria;-inkscape-font-specification:Anaktoria;text-align:center;text-decoration:none;text-decoration-line:none;text-decoration-color:#000000;letter-spacing:0px;word-spacing:0px;text-anchor:middle;fill:#000000;stroke:#000000;stroke-width:0.158562px;stroke-linecap:butt;stroke-linejoin:miter;stroke-opacity:1;stop-color:#000000"
       x="77.61525"
       y="135.52733"
       id="text45692"><tspan
         sodipodi:role="line"
         style="font-style:normal;font-variant:normal;font-weight:normal;font-stretch:normal;font-size:3.8055px;font-family:Anaktoria;-inkscape-font-specification:Anaktoria;text-align:center;text-anchor:middle;stroke-width:0.158562px"
         x="77.61525"
         y="135.52733"
         id="tspan45690">Tunnel</tspan><tspan
         sodipodi:role="line"
         style="font-style:normal;font-variant:normal;font-weight:normal;font-stretch:normal;font-size:3.8055px;font-family:Anaktoria;-inkscape-font-specification:Anaktoria;text-align:center;text-anchor:middle;stroke-width:0.158562px"
         x="77.61525"
         y="139.33282"
         id="tspan46062">Complex</tspan></text>
    <text
       xml:space="preserve"
       style="font-style:normal;font-variant:normal;font-weight:normal;font-stretch:normal;font-size:3.8055px;line-height:100%;font-family:Anaktoria;-inkscape-font-specification:Anaktoria;text-align:center;text-decoration:none;text-decoration-line:none;text-decoration-color:#000000;letter-spacing:0px;word-spacing:0px;text-anchor:middle;fill:#000000;stroke:#000000;stroke-width:0.158562px;stroke-linecap:butt;stroke-linejoin:miter;stroke-opacity:1;stop-color:#000000"
       x="65.374359"
       y="106.46269"
       id="text46500"><tspan
         sodipodi:role="line"
         style="font-style:normal;font-variant:normal;font-weight:normal;font-stretch:normal;font-size:3.8055px;font-family:Anaktoria;-inkscape-font-specification:Anaktoria;text-align:center;text-anchor:middle;stroke-width:0.158562px"
         x="65.374359"
         y="106.46269"
         id="tspan46498">Mount</tspan><tspan
         sodipodi:role="line"
         style="font-style:normal;font-variant:normal;font-weight:normal;font-stretch:normal;font-size:3.8055px;font-family:Anaktoria;-inkscape-font-specification:Anaktoria;text-align:center;text-anchor:middle;stroke-width:0.158562px"
         x="65.374359"
         y="110.26818"
         id="tspan46774">Peshon</tspan></text>
    <text
       xml:space="preserve"
       style="font-style:normal;font-variant:normal;font-weight:normal;font-stretch:normal;font-size:3.8055px;line-height:100%;font-family:Anaktoria;-inkscape-font-specification:Anaktoria;text-align:center;text-decoration:none;text-decoration-line:none;text-decoration-color:#000000;letter-spacing:0px;word-spacing:0px;text-anchor:middle;fill:#000000;stroke:#000000;stroke-width:0.158562px;stroke-linecap:butt;stroke-linejoin:miter;stroke-opacity:1;stop-color:#000000"
       x="72.815193"
       y="152.91142"
       id="text47028"><tspan
         sodipodi:role="line"
         style="font-style:normal;font-variant:normal;font-weight:normal;font-stretch:normal;font-size:3.8055px;font-family:Anaktoria;-inkscape-font-specification:Anaktoria;text-align:center;text-anchor:middle;stroke-width:0.158562px"
         x="72.815193"
         y="152.91142"
         id="tspan47026">Southern Fields</tspan></text>
    <path
       style="fill:none;fill-rule:evenodd;stroke:#671f05;stroke-width:0.158562px;stroke-linecap:butt;stroke-linejoin:miter;stroke-opacity:1"
       d="m 66.599887,97.539644 c 8.649565,0.946425 15.093392,-2.92027 15.093392,-2.92027 0,0 -1.099436,0.679492 0.637645,5.844256 1.737081,5.16476 -2.067945,6.04082 -2.202871,7.86673 -0.134925,1.82592 4.354387,7.89578 -0.177751,8.96613 -4.532138,1.07035 -30.454319,-0.60199 -31.491861,-2.65231 -1.037545,-2.05032 -7.250521,-12.40351 -4.110103,-14.822613 3.14042,-2.419102 6.132162,-11.414834 22.251549,-2.281923 z"
       id="path49339"
       sodipodi:nodetypes="ccsssssc" />
    <path
       sodipodi:type="star"
       style="fill:none;fill-opacity:1;stroke:#ff45a0;stroke-width:2.88;stroke-linecap:square;stroke-linejoin:round;stroke-miterlimit:4;stroke-dasharray:none;stroke-opacity:1;paint-order:markers stroke fill"
       id="path50617"
       inkscape:flatsided="false"
       sodipodi:sides="5"
       sodipodi:cx="157.84886"
       sodipodi:cy="176.28516"
       sodipodi:r1="33.496265"
       sodipodi:r2="12.72858"
       sodipodi:arg1="0.92350176"
       sodipodi:arg2="1.5518203"
       inkscape:rounded="0.07"
       inkscape:randomized="0"
       d="m 178.04813,203.00574 c -1.36112,1.02893 -18.25179,-14.02667 -19.95774,-13.99429 -1.70596,0.0324 -18.01321,15.71801 -19.41239,14.74146 -1.39918,-0.97654 7.70004,-21.69295 7.14208,-23.30541 -0.55797,-1.61246 -20.51511,-12.27445 -20.01873,-13.90692 0.49638,-1.63246 23.01067,0.61969 24.37179,-0.40924 1.36112,-1.02893 5.33417,-23.30404 7.04013,-23.33642 1.70596,-0.0324 6.52134,22.07594 7.92052,23.05249 1.39918,0.97654 23.81181,-2.12824 24.36977,-0.51579 0.55796,1.61246 -18.98026,13.02401 -19.47664,14.65647 -0.49638,1.63247 9.38233,21.98872 8.02121,23.01765 z"
       transform="matrix(0.0930439,0,0,0.0930439,43.282381,63.506301)"
       inkscape:transform-center-x="0.018153863"
       inkscape:transform-center-y="-0.2781432" />
    <text
       xml:space="preserve"
       style="font-style:normal;font-variant:normal;font-weight:normal;font-stretch:normal;font-size:2.53699px;line-height:100%;font-family:Anaktoria;-inkscape-font-specification:Anaktoria;text-align:center;text-decoration:none;text-decoration-line:none;text-decoration-color:#000000;letter-spacing:0px;word-spacing:0px;text-anchor:middle;fill:#000000;stroke:#000000;stroke-width:0.158562px;stroke-linecap:butt;stroke-linejoin:miter;stroke-opacity:1;stop-color:#000000"
       x="67.522453"
       y="78.452827"
       id="text50703"><tspan
         sodipodi:role="line"
         style="font-style:normal;font-variant:normal;font-weight:normal;font-stretch:normal;font-size:2.53699px;font-family:Anaktoria;-inkscape-font-specification:Anaktoria;text-align:center;text-anchor:middle;stroke-width:0.158562px"
         x="67.522453"
         y="78.452827"
         id="tspan50701">Grizzard Station</tspan></text>
    <path
       style="fill:none;fill-rule:evenodd;stroke:#671f05;stroke-width:0.158562px;stroke-linecap:butt;stroke-linejoin:miter;stroke-opacity:1"
       d="m 23.812014,112.61481 c 0,0 8.738006,1.70678 9.92595,0.94392 1.187944,-0.76286 -1.083399,-4.20737 -1.083399,-4.20737 l 4.047077,-7.73451 c 0.812847,-1.55346 0.365285,-5.519555 -0.57869,-6.446402 -0.943975,-0.926847 2.91315,-7.636393 1.9355,-8.729503 -0.977651,-1.093111 -2.964505,0.482643 -4.430399,1.062578 -1.465894,0.579934 -1.142027,-3.140491 -1.142027,-3.140491 0,0 3.362475,-4.42415 8.171441,-3.616135 4.808966,0.808014 4.107082,3.49938 8.354068,3.691371 4.246986,0.191992 1.190509,-3.8634 6.013823,-2.95346 4.823316,0.90994 9.141287,8.474215 11.113482,8.330721 1.972194,-0.143494 1.850929,-7.562712 4.292546,-7.815999 2.441616,-0.253289 4.888477,7.77558 6.956993,7.432015 2.068517,-0.343566 4.540238,-6.888344 7.438994,-8.071782 2.898756,-1.183441 12.708058,-1.745043 13.792672,-0.463408 1.084608,1.281633 7.757985,1.868653 7.757985,1.868653 l -0.37643,3.603894 c 0,0 -7.737527,-0.143831 -9.034698,-0.854661 -1.29717,-0.710831 -3.74339,1.274095 -3.817708,2.35372 -0.07432,1.079625 3.427265,7.568063 3.142428,10.826126 -0.284837,3.258063 -4.322066,7.339633 -4.15493,9.391713 0.167143,2.05208 6.384704,1.91605 7.18897,3.37339 0.804268,1.45735 4.157608,0.95174 2.062998,-1.53221 -2.094611,-2.48396 -4.596349,-7.71265 -1.12342,-7.71505 3.47293,-0.002 6.56649,0.3842 6.43885,3.56875 -0.12764,3.18455 -3.26623,4.5924 -2.65486,5.68353 0.61136,1.09113 10.49369,1.7617 10.49369,1.7617 l 14.80405,-2.06803"
       id="path53440"
       sodipodi:nodetypes="csssssssssccsssssssscssssc" />
    <path
       style="fill:none;fill-rule:evenodd;stroke:#671f05;stroke-width:0.158562px;stroke-linecap:butt;stroke-linejoin:miter;stroke-opacity:1"
       d="m 25.94479,122.18377 c 0,0 7.528231,-0.91892 8.178311,0.82602 0.650081,1.74495 -4.128556,4.11162 -1.76337,6.75202 2.365187,2.64041 13.600097,5.09829 13.923597,2.72216 0.3235,-2.37614 -4.049516,-7.77505 -2.232404,-8.85781 1.817111,-1.08276 29.988212,-1.59239 33.924807,-1.08426 3.936595,0.50814 4.237651,5.04087 2.362432,6.03491 -1.875218,0.99403 -0.262913,5.58634 -0.262913,5.58634"
       id="path53875" />
    <path
       style="fill:none;fill-rule:evenodd;stroke:#671f05;stroke-width:0.158562px;stroke-linecap:butt;stroke-linejoin:miter;stroke-opacity:1"
       d="m 93.25419,134.78388 c 0,0 3.017367,-8.65948 1.250413,-10.42643 -1.766948,-1.76694 -5.206352,-0.0561 -2.090439,-3.59785 3.115915,-3.54176 6.375738,-3.79107 7.781206,-2.59153 1.40547,1.19952 -6.386172,5.27765 -1.879597,8.1579 4.506577,2.88024 8.213627,2.39065 9.171197,-0.32162 0.95757,-2.71228 -4.72247,-6.45958 -1.86369,-7.47737 2.85877,-1.01779 9.98219,-1.59045 9.98219,-1.59045"
       id="path53877" />
    <path
       style="fill:none;fill-rule:evenodd;stroke:#671f05;stroke-width:0.158562px;stroke-linecap:butt;stroke-linejoin:miter;stroke-opacity:1"
       d="m 115.60547,116.93653 12.80761,0.19048"
       id="path53992" />
    <path
       style="fill:none;fill-rule:evenodd;stroke:#671f05;stroke-width:0.158562px;stroke-linecap:butt;stroke-linejoin:miter;stroke-opacity:1"
       d="m 67.525448,142.614 c -4.971311,5.05286 -31.256043,4.83682 -32.923784,6.83884 -1.667741,2.00201 -3.174258,24.54849 -0.684133,25.26315 2.490124,0.71465 80.539129,6.49394 82.907179,0.24383 2.36805,-6.25012 1.18264,-28.21425 -2.39195,-30.71695 -3.57458,-2.50271 -7.76736,-5.58591 -16.589186,-2.88275 -8.821814,2.70316 -14.19631,3.54966 -15.947377,2.92902 -1.751066,-0.62064 -2.506662,-2.14971 -2.506662,-2.14971"
       id="path55092" />
    <text
       xml:space="preserve"
       style="font-style:normal;font-variant:normal;font-weight:normal;font-stretch:normal;font-size:3.8055px;line-height:100%;font-family:Anaktoria;-inkscape-font-specification:Anaktoria;text-align:center;text-decoration:none;text-decoration-line:none;text-decoration-color:#000000;letter-spacing:0px;word-spacing:0px;text-anchor:middle;fill:#000000;stroke:#000000;stroke-width:0.158562px;stroke-linecap:butt;stroke-linejoin:miter;stroke-opacity:1;stop-color:#000000"
       x="55.132317"
       y="159.31253"
       id="text55196"><tspan
         sodipodi:role="line"
         style="font-style:normal;font-variant:normal;font-weight:normal;font-stretch:normal;font-size:3.8055px;font-family:Anaktoria;-inkscape-font-specification:Anaktoria;text-align:center;text-anchor:middle;stroke-width:0.158562px"
         x="55.132317"
         y="159.31253"
         id="tspan56032">Anchor</tspan><tspan
         sodipodi:role="line"
         style="font-style:normal;font-variant:normal;font-weight:normal;font-stretch:normal;font-size:3.8055px;font-family:Anaktoria;-inkscape-font-specification:Anaktoria;text-align:center;text-anchor:middle;stroke-width:0.158562px"
         x="55.132317"
         y="163.11803"
         id="tspan55194">Village</tspan></text>
    <text
       xml:space="preserve"
       style="font-style:normal;font-variant:normal;font-weight:normal;font-stretch:normal;font-size:3.8055px;line-height:100%;font-family:Anaktoria;-inkscape-font-specification:Anaktoria;text-align:center;text-decoration:none;text-decoration-line:none;text-decoration-color:#000000;letter-spacing:0px;word-spacing:0px;text-anchor:middle;fill:#000000;stroke:#000000;stroke-width:0.158562px;stroke-linecap:butt;stroke-linejoin:miter;stroke-opacity:1;stop-color:#000000"
       x="39.760056"
       y="75.24765"
       id="text57204"><tspan
         sodipodi:role="line"
         id="tspan57200"
         style="font-style:normal;font-variant:normal;font-weight:normal;font-stretch:normal;font-size:3.8055px;font-family:Anaktoria;-inkscape-font-specification:Anaktoria;text-align:center;text-anchor:middle;stroke-width:0.158562px"
         x="39.760056"
         y="75.24765">Treble</tspan><tspan
         sodipodi:role="line"
         style="font-style:normal;font-variant:normal;font-weight:normal;font-stretch:normal;font-size:3.8055px;font-family:Anaktoria;-inkscape-font-specification:Anaktoria;text-align:center;text-anchor:middle;stroke-width:0.158562px"
         x="39.760056"
         y="79.053146"
         id="tspan57922">Docks</tspan></text>
    <path
       style="fill:none;fill-rule:evenodd;stroke:#bf8365;stroke-width:0.264583px;stroke-linecap:butt;stroke-linejoin:miter;stroke-opacity:1;fill-opacity:1"
       d="m 16.567389,29.814422 c 2.431105,0.704154 4.965953,0.918715 7.421268,1.503608 0.471783,0.112385 1.754136,0.589315 2.073901,1.24414 0.257003,0.526301 0.992096,7.734165 0.554274,8.597056 -0.210326,0.414525 -0.628818,0.699836 -0.836696,1.115594 -0.501821,1.003641 -0.966098,3.549648 -0.554325,4.774576 0.420464,1.25078 3.13685,2.490316 3.87205,3.593142 1.340752,2.011172 1.36874,3.994303 1.36874,6.363168 0,0.989886 0.297958,2.800088 -0.531447,3.573 C 26.48771,63.791327 17.024062,66.23478 11.939142,64.200812 8.3326117,62.7582 7.6471819,61.012813 5.8033702,57.786142 5.5727493,57.382557 5.1497801,57.097794 4.9666741,56.670548 4.6373216,55.902058 4.6877755,53.706349 4.6877755,52.765967 c 0,-0.46483 -0.2078789,-0.978736 0,-1.394494 0.8257291,-1.651458 3.0377852,-1.659194 3.8924785,-3.059255 0.2019695,-0.330843 0.9404826,-1.409814 1.0989297,-1.893017 0.086179,-0.262814 -0.054503,-0.558586 0,-0.829744 0.1754447,-0.872848 0.6551513,-2.03653 1.0960013,-2.758917 0.241163,-0.395171 0.147958,-4.432352 0.262796,-5.006541 0.02578,-0.12892 0.252927,-0.150013 0.278898,-0.278897 0.104597,-0.519067 -0.187126,-1.593927 0,-2.150623 0.100064,-0.297685 0.637009,-0.547259 0.81266,-0.81266 0.398989,-0.60285 0.6027,-1.271492 0.817069,-1.889834 0.274654,-0.792229 1.557329,-1.39636 1.94378,-2.147123 0.130333,-0.253198 -0.288769,-0.294828 0.265723,-0.469101 0.456412,-0.143449 0.940852,-0.174228 1.411278,-0.261339 z"
       id="path157644" />
    <text
       xml:space="preserve"
       style="font-style:normal;font-variant:normal;font-weight:normal;font-stretch:normal;font-size:3.8055px;line-height:100%;font-family:Anaktoria;-inkscape-font-specification:Anaktoria;text-align:center;text-decoration:none;text-decoration-line:none;text-decoration-color:#000000;letter-spacing:0px;word-spacing:0px;text-anchor:middle;fill:#000000;stroke:#000000;stroke-width:0.158562px;stroke-linecap:butt;stroke-linejoin:miter;stroke-opacity:1;stop-color:#000000"
       x="18.918694"
       y="52.486595"
       id="text161400"><tspan
         sodipodi:role="line"
         style="font-style:normal;font-variant:normal;font-weight:normal;font-stretch:normal;font-size:3.8055px;font-family:Anaktoria;-inkscape-font-specification:Anaktoria;text-align:center;text-anchor:middle;stroke-width:0.158562px"
         x="18.918694"
         y="52.486595"
         id="tspan161398">Port</tspan><tspan
         sodipodi:role="line"
         style="font-style:normal;font-variant:normal;font-weight:normal;font-stretch:normal;font-size:3.8055px;font-family:Anaktoria;-inkscape-font-specification:Anaktoria;text-align:center;text-anchor:middle;stroke-width:0.158562px"
         x="18.918694"
         y="56.292095"
         id="tspan161784">Lion</tspan></text>
  </g>
</svg>
