<?xml version="1.0" encoding="UTF-8" standalone="no"?>
<!-- Created with Inkscape (http://www.inkscape.org/) -->

<svg
   width="50.858307mm"
   height="10.320926mm"
   viewBox="0 0 50.858307 10.320926"
   version="1.1"
   id="svg5"
   inkscape:version="1.1.1 (3bf5ae0d25, 2021-09-20)"
   sodipodi:docname="AtariVoxEnhanced.svg"
   xmlns:inkscape="http://www.inkscape.org/namespaces/inkscape"
   xmlns:sodipodi="http://sodipodi.sourceforge.net/DTD/sodipodi-0.dtd"
   xmlns="http://www.w3.org/2000/svg"
   xmlns:svg="http://www.w3.org/2000/svg">
  <sodipodi:namedview
     id="namedview7"
     pagecolor="#ffffff"
     bordercolor="#111111"
     borderopacity="1"
     inkscape:pageshadow="0"
     inkscape:pageopacity="0"
     inkscape:pagecheckerboard="1"
     inkscape:document-units="mm"
     showgrid="false"
     showguides="false"
     inkscape:guide-bbox="true"
     fit-margin-top="0"
     fit-margin-left="0"
     fit-margin-right="0"
     fit-margin-bottom="0"
     inkscape:zoom="6.5956079"
     inkscape:cx="72.548278"
     inkscape:cy="5.3065616"
     inkscape:window-width="1920"
     inkscape:window-height="1011"
     inkscape:window-x="0"
     inkscape:window-y="32"
     inkscape:window-maximized="1"
     inkscape:current-layer="layer1">
    <sodipodi:guide
       position="30.584455,5.7277206"
       orientation="0,-1"
       id="guide1772" />
    <sodipodi:guide
       position="30.321915,9.2345006"
       orientation="0,-1"
       id="guide1826" />
    <sodipodi:guide
       position="36.116535,10.265911"
       orientation="0,-1"
       id="guide2870" />
  </sodipodi:namedview>
  <defs
     id="defs2" />
  <g
     inkscape:label="Layer 1"
     inkscape:groupmode="layer"
     id="layer1"
     transform="translate(-79.457205,-143.32919)">
    <path
       id="path2066"
       style="fill:#000000;fill-opacity:1;stroke:none;stroke-width:0.999999px;stroke-linecap:butt;stroke-linejoin:miter;stroke-opacity:1"
       d="m 424.83398,545.82227 v 13.2539 h 2.68946 l 0.0547,-5.51172 c 0,0 4.98189,-0.046 5.69532,0.0625 0.85285,0.12926 1.45243,1.65414 1.31054,2.08399 -10e-4,0.91049 0,3.36523 0,3.36523 l 2.8418,-0.0215 -0.0547,-3.10742 c -0.0189,-1.38864 -0.4145,-3.24481 -1.69531,-3.63282 0,0 1.68053,-0.82159 1.72656,-3.07812 0.0227,-1.67388 -0.82819,-3.41406 -2.8457,-3.41406 -2.52616,0 -8.36229,-7.6e-4 -9.72266,0 z m 2.66016,2.16015 4.71484,0.008 c 0,0 2.48324,-0.18425 2.44922,1.50391 -0.0344,1.68801 -2.4082,1.83594 -2.4082,1.83594 l -4.75586,-0.0586 z"
       transform="scale(0.26458333)" />
    <path
       style="fill:none;stroke:#000000;stroke-width:0.465;stroke-linecap:square;stroke-linejoin:miter;stroke-miterlimit:4;stroke-dasharray:none;stroke-opacity:1"
       d="m 79.689705,149.29324 h 9.834446 l 0.637572,-1.04895 0.50646,1.68173 0.552394,-2.25009 0.73696,3.11142 0.340556,-5.02362 0.579014,5.93264 0.614169,-8.35013 0.483013,10.26636 1.11664,-6.83043 0.954894,3.76831 0.971383,-2.97098 0.6139,2.26834 0.684898,-1.79104 0.994616,1.24951 h 30.77239"
       id="path1171"
       sodipodi:nodetypes="ccccccccccccccccc" />
    <path
       style="fill:#000000;fill-opacity:1;stroke:none;stroke-width:0.264583px;stroke-linecap:butt;stroke-linejoin:miter;stroke-opacity:1"
       d="m 100.29498,147.92101 2.14808,-4.54153 h 1.02574 l 2.00466,4.53276 h -1.08379 l -1.39797,-3.49095 -1.60134,3.48948 z"
       id="path1240"
       sodipodi:nodetypes="cccccccc" />
    <path
       style="fill:#000000;fill-opacity:1;stroke:none;stroke-width:0.264583px;stroke-linecap:butt;stroke-linejoin:miter;stroke-opacity:1"
       d="m 101.92433,146.14624 h 2.37745 l 0.15184,0.56666 h -3.07347 z"
       id="path1370" />
    <rect
       style="fill:#000000;fill-opacity:1;stroke:none;stroke-width:1.27;stroke-linecap:round;stroke-linejoin:round;paint-order:markers stroke fill"
       id="rect1429"
       width="3.3719237"
       height="0.75366634"
       x="105.05764"
       y="144.42853" />
    <rect
       style="fill:#000000;fill-opacity:1;stroke:none;stroke-width:1.27;stroke-linecap:round;stroke-linejoin:round;paint-order:markers stroke fill"
       id="rect1585"
       width="0.74531555"
       height="3.167645"
       x="106.396"
       y="144.75475" />
    <path
       style="fill:#000000;fill-opacity:1;stroke:none;stroke-width:0.264583px;stroke-linecap:butt;stroke-linejoin:miter;stroke-opacity:1"
       d="m 108.04343,147.92239 1.73569,-3.50678 h 0.47937 l 1.57762,3.50678 h -0.67855 l -1.14937,-2.78068 -1.21687,2.78068 z"
       id="path1941" />
    <rect
       style="fill:#000000;fill-opacity:1;stroke:none;stroke-width:1.27;stroke-linecap:round;stroke-linejoin:round;paint-order:markers stroke fill"
       id="rect2031"
       width="1.8634204"
       height="0.53237277"
       x="109.14034"
       y="146.35895" />
    <rect
       style="fill:#000000;fill-opacity:1;stroke:none;stroke-width:1.27;stroke-linecap:round;stroke-linejoin:round;stroke-opacity:1;paint-order:markers stroke fill"
       id="rect2714"
       width="0.85175252"
       height="3.5067801"
       x="116.59386"
       y="144.4156" />
    <path
       style="fill:#000000;fill-opacity:1;stroke:none;stroke-width:0.264583px;stroke-linecap:butt;stroke-linejoin:miter;stroke-opacity:1"
       d="m 117.5595,143.3842 2.10243,4.53819 h 0.86575 l 1.99257,-4.53819 h -0.94898 l -1.44145,3.40686 -1.48017,-3.40686 z"
       id="path2905" />
    <path
       id="path2995"
       style="fill:#000000;fill-opacity:1;stroke:none;stroke-width:4.8;stroke-linecap:round;stroke-linejoin:round;stroke-opacity:1;paint-order:markers stroke fill"
       d="m 468.84375,545.82227 a 7.4952831,6.6269861 0 0 0 -7.49609,6.62695 7.4952831,6.6269861 0 0 0 7.49609,6.62695 7.4952831,6.6269861 0 0 0 7.49414,-6.62695 7.4952831,6.6269861 0 0 0 -7.49414,-6.62695 z m 0,2.09961 a 5.120097,4.5269547 0 0 1 5.11914,4.52734 5.120097,4.5269547 0 0 1 -5.11914,4.52734 5.120097,4.5269547 0 0 1 -5.12109,-4.52734 5.120097,4.5269547 0 0 1 5.12109,-4.52734 z"
       transform="scale(0.26458333)" />
    <path
       style="fill:#000000;fill-opacity:1;stroke:none;stroke-width:0.264583px;stroke-linecap:butt;stroke-linejoin:miter;stroke-opacity:1"
       d="m 126.30117,144.41561 2.79626,3.50678 h 0.72277 l -2.69093,-3.50678 h -0.86933 z"
       id="path3239" />
    <path
       style="fill:#000000;fill-opacity:1;stroke:none;stroke-width:0.264583px;stroke-linecap:butt;stroke-linejoin:miter;stroke-opacity:1"
       d="m 126.30117,147.92239 2.79626,-3.50678 h 0.72277 l -2.69093,3.50678 h -0.86933 z"
       id="path3453" />
    <text
       xml:space="preserve"
       style="font-style:normal;font-weight:normal;font-size:3.08317px;line-height:1.25;font-family:sans-serif;letter-spacing:1.33434px;fill:#000000;fill-opacity:1;stroke:#000000;stroke-width:0.269446;stroke-miterlimit:4;stroke-dasharray:none;stroke-opacity:1"
       x="92.296646"
       y="166.29106"
       id="text4931"
       transform="scale(1.0896003,0.91776771)"><tspan
         sodipodi:role="line"
         id="tspan4929"
         style="font-style:normal;font-variant:normal;font-weight:normal;font-stretch:normal;font-family:'Nimbus Sans';-inkscape-font-specification:'Nimbus Sans';stroke:#000000;stroke-width:0.269446;stroke-miterlimit:4;stroke-dasharray:none;stroke-opacity:1"
         x="92.296646"
         y="166.29106">ENHANCED</tspan></text>
    <path
       style="fill:#000000;fill-opacity:1;stroke:none;stroke-width:0.264583px;stroke-linecap:butt;stroke-linejoin:miter;stroke-opacity:1"
       d="m 111.83611,147.92239 -1.73569,-3.50678 h -0.47937 l -1.57762,3.50678 h 0.67855 l 1.14937,-2.78068 1.21687,2.78068 z"
       id="path19223" />
    <path
       style="fill:#000000;fill-opacity:1;stroke:none;stroke-width:0.264583px;stroke-linecap:butt;stroke-linejoin:miter;stroke-opacity:1"
       d="m 122.52025,143.3842 -2.10243,4.53819 h -0.86575 l -1.99257,-4.53819 h 0.94898 l 1.44145,3.40686 1.48017,-3.40686 z"
       id="path21570" />
  </g>
</svg>
