<?xml version="1.0" encoding="UTF-8" standalone="no"?>
<!-- Created with Inkscape (http://www.inkscape.org/) -->

<svg
   width="292.84097mm"
   height="143.89325mm"
   viewBox="0 0 292.84097 143.89325"
   version="1.1"
   id="svg130580"
   inkscape:version="1.1 (c68e22c387, 2021-05-23)"
   sodipodi:docname="BRP logo.svg"
   xmlns:inkscape="http://www.inkscape.org/namespaces/inkscape"
   xmlns:sodipodi="http://sodipodi.sourceforge.net/DTD/sodipodi-0.dtd"
   xmlns="http://www.w3.org/2000/svg"
   xmlns:svg="http://www.w3.org/2000/svg">
  <sodipodi:namedview
     id="namedview130582"
     pagecolor="#ffffff"
     bordercolor="#111111"
     borderopacity="1"
     inkscape:pageshadow="0"
     inkscape:pageopacity="0"
     inkscape:pagecheckerboard="1"
     inkscape:document-units="mm"
     showgrid="false"
     inkscape:zoom="0.67081229"
     inkscape:cx="433.05706"
     inkscape:cy="371.19177"
     inkscape:window-width="1920"
     inkscape:window-height="1011"
     inkscape:window-x="0"
     inkscape:window-y="32"
     inkscape:window-maximized="1"
     inkscape:current-layer="layer1"
     fit-margin-top="0"
     fit-margin-left="0"
     fit-margin-right="0"
     fit-margin-bottom="0" />
  <defs
     id="defs130577" />
  <g
     inkscape:label="Layer 1"
     inkscape:groupmode="layer"
     id="layer1"
     transform="translate(9.4967974,-50.131484)">
    <g
       id="g132221">
      <path
         style="fill:none;fill-rule:evenodd;stroke:#000000;stroke-width:5;stroke-linecap:round;stroke-linejoin:round;stroke-miterlimit:4;stroke-dasharray:none;stroke-opacity:1"
         d="M 28.429341,100.60448 V 77.693624 c 0,-13.638422 11.523825,-25.06214 24.975534,-25.06214 17.622005,0 24.249495,4.619476 24.249495,25.70871 0,21.089235 -25.305017,22.257146 -25.305017,22.257146"
         id="path130709"
         sodipodi:nodetypes="csssc" />
      <path
         style="fill:none;fill-rule:evenodd;stroke:#000000;stroke-width:5;stroke-linecap:round;stroke-linejoin:round;stroke-miterlimit:4;stroke-dasharray:none;stroke-opacity:1"
         d="m -6.992595,139.5254 c -0.38939,34.88245 25.684526,52.17863 64.384723,51.99793 38.700196,-0.1807 53.999942,-23.77013 53.999942,-51.24115 0,-27.47102 -29.565976,-38.65013 -59.042717,-39.68484"
         id="path131105"
         sodipodi:nodetypes="cssc" />
      <path
         style="fill:none;fill-rule:evenodd;stroke:#000000;stroke-width:5;stroke-linecap:round;stroke-linejoin:round;stroke-miterlimit:4;stroke-dasharray:none;stroke-opacity:1"
         d="M 106.46219,100.60448 V 77.693624 c 0,-13.638422 11.52383,-25.06214 24.97554,-25.06214 17.622,0 24.24949,4.619476 24.24949,25.70871 0,21.089235 -25.30502,22.257146 -25.30502,22.257146"
         id="path131187"
         sodipodi:nodetypes="csssc" />
      <path
         style="fill:none;fill-rule:evenodd;stroke:#000000;stroke-width:5;stroke-linecap:round;stroke-linejoin:round;stroke-miterlimit:4;stroke-dasharray:none;stroke-opacity:1"
         d="M 184.49504,100.60448 V 77.693624 c 0,-13.638422 11.52383,-25.06214 24.97554,-25.06214 17.622,0 24.24949,4.619476 24.24949,25.70871 0,21.089235 -25.30502,22.257146 -25.30502,22.257146"
         id="path131189"
         sodipodi:nodetypes="csssc" />
      <path
         style="fill:none;fill-rule:evenodd;stroke:#000000;stroke-width:5;stroke-linecap:round;stroke-linejoin:round;stroke-miterlimit:4;stroke-dasharray:none;stroke-opacity:1"
         d="m 280.84418,140.26111 c -0.38939,34.88245 -22.18703,50.74868 -48.49978,50.74868 -30.0263,0 -42.91948,-23.25659 -42.91948,-50.72761 0,-27.47102 -29.56598,-38.65013 -59.04272,-39.68484"
         id="path131670"
         sodipodi:nodetypes="cssc" />
    </g>
  </g>
</svg>
